<svg version="1.1" id="ID" xmlns="http://www.w3.org/2000/svg" xmlns:xlink="http://www.w3.org/1999/xlink" x="0px" y="0px" viewBox="0 0 960 480" style="stroke-width: 1.62281px;" xml:space="preserve">
<style type="text/css">
	#Layer_2 rect {fill:none !important;stroke:none;}
	#Layer_2 path {fill:none !important;stroke:none;}
	#Layer_2 polygon {fill:none !important;stroke:none;}
</style>
<g class="transformBox">
		<path id="ID1" d="M50,145v1V145z M45,144l1,1h-1v1l-1-1v-1H45z M49,144h1H49z M35,144h1l-1,1h-1v-1H35z M50,144v-1
			V144z M52,143v-1V143z M35,142v1h-1L35,142z M51,143v-1V143z M47,141h2v1h-1h1v1v1h1h-1v1h1l-1,1v-1l-1-1v-1h-1v-1l-1,1l-1-1l1-1
			v1v-1v1h1V141z M47,141v1V141z M49,141h-1H49z M47,141h1H47z M51,141v-1V141z M48,140v1V140h-1H48z M47,140v-1V140z M50,139h1v1
			L50,139z M27,139h-1l1-1V139z M26,140l-1-1v-1h1v1V140z M32,137v1l-1-1H32z M29,135v1l1-1v1L29,135z M20,135h1H20z M19,134v-1V134
			z M29,132v1h1h-1V132z M25,132h-1H25z M24,131v1V131z M16,131v1l-1-1H16z M24,131h-1H24z M20,129v-1V129z M16,128h1H16z M17,127h1
			v1v-1l1,1h1v1l-1-1v1h1h1v1h1h1l1,1h-1h1v1v-1l1,1h-1h-1l1,1h1v-1l1,1l1,1l2,1v1h1l-1,1h1v-1h1v1l1,1h-1l1,1h-1h-1h-1h-1v-1v-1h-2
			l-1-1l-1-1l-1-1v1l-1-1h-1h-1h-1v-1h-1h-1v-1h-1l1-1h-1v-1l-1,1v-1l1-1h1v-1V127z M68,95l1,1h-1V95z M64,92h-1H64z M8,86h1v1L8,86
			z M30,79h-1H30z M54,79h-1H54z M38,78h-1H38z M39,78h-1H39z M5,72v-1V72z M5,71l-1,1L5,71z M2,70v1V70z M26,103l-2-2v1l-1-2h-1
			l-3-3l-2-2h1h-1l-4-3l-1-1h1h-1l-1-2l-1-1l-1-1v-1l-1-1l1-1H8v-1l-1-1v-1H6h1v-1l-1-1l-1-1h1H5v-1h1l-1-1h1l-1-1l1-1l-1-1v-1h1H5
			h1l1-1h1H7l1,1v-1v1v-1v1v-1h1H8l2-1l1,1h1l1-1l6,3l1,2l-1-1v1v-1v1l1,1v-1l1,1h-1h1l1,1l1,1h1h-1h1h1h2l2,1h1h1h1h3l2-1l-1,1h1
			v-1h1h1l1,1l2-1l2,1l1,1l1,1l7-3l1,1h-1l1,1h-1h1h1l-1,1h1h1v1l4,4h1l1,2v1l1,1h-1l1,1v1v-1v1v-1l1,1l-1,1v-1l-1,1h1h-1h1h-1l1,1
			v-1v1v-1h1l-1,1h1h-1h1v1v-1h-1l1-1v1v-1h1l-1,1h1h-1l1,1l-1-1h1v1v-1v1v-1h1h1h-1h1v1v-1l1,1h-1h1v1h1h-1h1v1v-1v2h-1h1h-1h-1h-1
			v1h-1v1l-1,1h1l-1,1v2v1l-2,1v1l-1-1v1l1,1h-1l-2,2l1,3l1,1v1h1v1v1l1,1h1v1l-1,1h-3l2,1v1l1,1v1h-1v1v1v1l1,1l1,1h1v1v1v1h1l-1,1
			v1v3l1,1l1,2l-1,3l-1-1l-3-1h-1h-1h1v-1l-1,1h-1h-1l-2-3v-6l-1-4h-1l-2-1l-2-1l-1-2v-1l-1-2l-2-1l-4-6l-2-1v-2l-3-1h-4h-1l-3-2
			l-2-4L26,103z M4,70l1,1H4H3L4,70z M1,69v1V69z M2,68l1,1v1H2H1l1-1H1h1V68H1H2z M5,65l2,1v-1h1v1v1v-1l-1,1l-1-1L5,65z" style="fill: rgb(250, 171, 24);"></path>
		<path id="ID2" d="M428,369l2,1l1,1v1h-1v1l-1-1l-1-1h-1L428,369z M427,369v1h-1L427,369z M408,357h-1H408z M421,357
			l4,1l3,1l1,1l2,2l1,1v1v1h-1l-1,1h-1h-1v1h-1l-2,1l-2,1v1l-1,1h1h-1h-1l1,1v-1l1,1l-1,1h-1h-1h-1l2-1v-1v-1l-2-2l-3-3l-3-1h-1h-2
			h-1h1h-1l-3-4v-1v-1v-1h1l1,1v1v-1h1h1l5,1h3l2-2H421z" style="fill: rgb(153, 0, 0);"></path>
		<path id="ID3" d="M281,257v1V257z M279,256l1,1v-1v1L279,256z M280,256h-1H280z M278,256v-1V256z M278,255h-1H278z
			 M262,255v1V255z M275,254l1,1h-1V254z M276,254h-1H276z M269,253h-1H269z M277,251v1V251z M259,252v-1V252z M262,252v-1l1,1H262z
			 M261,251v1V251z M256,250v1V250z M244,250h1H244z M278,250h-1H278z M261,250v1V250z M262,250v1V250z M256,250h-1H256z M262,249v1
			V249z M261,249v1h-1v-1H261z M246,249v-1V249z M247,248l2,1l-1,2h1h-2l-2-1v-1L247,248z M245,248h1l-1,1V248z M253,247v1V247z
			 M261,247v1V247z M248,247v1l-1-1H248z M247,247h-1H247z M260,247h1l-1,1l1,1h-1h-1h1h-1l-1-1h1v-1H260z M252,247l1,1v1h-1l-1-1
			L252,247z M259,246v1l-1-1H259z M259,246l1,1h-1V246z M281,244v1V244z M264,241v1V241z M283,241l1,1h-1V241z M283,241h1H283z
			 M268,241l2,1v-1l2,1v1v1v-1v-1h1l2,1v1h1l1,1l1,2v1l-1,1v1l-1,1v1l-1,1l1,1h-1h-2v1v1h-1h-1v-2h-1v-1h-1h1l-1-1h-1v1v1l-1,1h-1
			l-2,1h-1v-1l1-1l-1-2l-1-1l1-1l1-1h-2l1-1v-1v-1h1h-1h1h-1l1-1v1v-1v-1v-1v-1l1-1h1h1H268z M252,238h1H252z M225,238h1v1L225,238z
			 M226,225v1V225z M224,223v1V223z M228,219v1l1,1l1-1l1,1v1h-1v1l2,1v1l1,1h-1l1,1l1,1l-1,1v3l2,3v2l1,1l2,2h1h1l8,2h-1h-1l-1,1
			l-1,2l-2,3l1,2h1v1h1v1l-1,1l-1-1h-1h-1v1l-1-1l-1-1v-1h-2v-1h-1l-1-1h-1h-1l-1-1h-3v-1l-1-1v-2v-1l1-1v-1l-2-1l-1-1v-1v-1v-1v-1
			h-1h1l-1-1l-2-1h-2v-1h-1v-1h1l1-1l-1,1h-1v1h1l-2,1h-1h-1l-2,1l-1-2h-2l-1-1l1-1l1-1h2l1-2h1v-2l-1-1h1h-1v-1h1v-1h1h1h1l1-1h1v2
			h1h1l-1,2l-1-1v1h1l1,1h1v1h1l1-1l-1,1v-1l-1-1v-1v-1h-1h1l-1-2h2h1L228,219z M215,214v1h-1v-1H215z M215,212h1H215z M223,208h-1
			H223z" style="fill: rgb(153, 0, 0);"></path>
		<path id="ID4" d="M221,334v1l-1-1H221z M226,333l-1,1L226,333z M218,330v-1V330z M214,329h1H214z M221,327v1V327z
			 M215,324l-1,1l1,1l-1,1l-1,1v-1v-1v-1h-1v1h-1l2-1h1v-1H215z M237,312v1V312z M235,312h-1H235z M227,312v1V312h-1H227z M229,311
			h-1H229z M231,311h1v1v1l1,1h2v-1v-1l2,1h1v1h2h1h1l1-1l1,1h1v1h-1v2h1v1h1v2v1h-4l-1-1v1h-1v-1l-1,1v1v1h-1v1l1,2v2l2,1l-1,1h-1
			v2h-1v2h-1h-1l-1-1l-3-1l-1-1l-1-1h-2v1h-1h-2h-2l-3,1l-1-1h-1l-2-1h-1v1h-1v-1l-1-1h2l1-1v-1h1v1v1l1,1v1h1l1-1v-1l1-1v-1h1v-1
			v-1l1-2v1h1h1h1v-2v-1l1-1l-1-1v-1l1-2v-1l3-2v-1L231,311z M236,309h-1H236z" style="fill: rgb(250, 171, 24);"></path>
		<path id="ID5" d="M150,298l2,1v1h3v1l-1,1v1h-1v-1v1l-1-1v1l-1-2h-1l-2-1l1-1L150,298z M134,237l3,2v3l1-1h1h1l1,1
			l3,3h1h1h1l1,1l1,1v1l2,1l1,2h1v1l2-1l1,1l1,1v2v1l2,1l1,1l3-1v1h2v1l1-1h1l1,1l-1,2v1h-1l-1,1l-1-1l-1,1l-1,2v1l-2,1h-1l1,1h1
			l1,1l2,2h1l1,1h1l-1,1l3,3v1l3-1l2,1l1,1h2v1v1l-1,2l2,2v-1h1h1h1l-1,1h1l1,1v1v1h2l-1,1h-1v1l-1,1h-1v1h-2v-1h-2v-1l-1-1h-1v-1
			h-1v-1v-1l-1,1l-1-2l-3-1l-3-1v-1l-3-3l-1-1l-6-4l-1-1l-2-1v-1v-1v1h1v-1h-1h1v-1v1v-1l-1-1l-1-3l-3-2l-3-1v-1l-6-4l-2-3l-1-1v-1
			l-2-2l-1-4l-2-1l-2-1l-2-2v-1h-1l3-2l2-1l1-2L134,237z" style="fill: rgb(250, 171, 24);"></path>
		<path id="ID6" d="M566,180v-1V180z M552,179h-1H552z M554,179h-1H554z M571,178h-1H571z M554,178h-1H554z M576,178h-1
			H576z M556,178v-1V178z M557,177h-1H557z M557,178v-1V178z M557,177h-1H557z M581,169h1v1v-1H581z M580,169h1l-1,1l-1-1H580z
			 M583,167v1V167z M575,167h-1H575z M571,166v1h1h1v-1l1,1l1,1h1h1l1,1h1l-1,1h1h1v1l1-1v1h1l1-1v-1l1-1h-1h1h1l1,1h1l2,2l1,2h1
			l1,1l3,1v1v3l-1,2h-1l-1,1l-2-1l-2-1l-2-3l-1,1h-3h-1h-3v-1h-1v1h-1v-1v1h-1v-1v1v-1v1v-1h-1v1v-1l-1,1v-1v1h-1v-1l-1,1v-1v1v-1
			l-1,1v-1v1h-1h-1h-1h-1l-3,1h-2h-2l-1-2h-1h-1h-1l-1-1l-1,1l1,1h-1h-1h-1h-1v-1v-1h-2l-2-2l1-1l1-2l2-1h4l4-1l2-1h1l2,1l1-1h1l3-1
			h1h1L571,166z" style="fill: rgb(153, 0, 0);"></path>
		<path id="ID7" d="M804,278h-1H804z M829,276v-1V276z M794,274v-1V274z M800,273l1,1l1,1l2,1l2,2l-2-2l-1,1l-1-1h-1v-1
			h-1v-1V273z M827,273h-1H827z M819,271h-1H819z M822,271h-1H822z M821,271h1H821z M822,272h-1H822v-1l1,1H822z M822,271h-1H822z
			 M789,271v-1V271z M831,270l1,1h-1V270z M832,271v-1V271z M828,270h1v1v-1l-1,1V270z M816,270l1,2h1l-2-1l-1-1H816z M815,270h-1
			H815z M816,270v-1V270z M816,269h1H816z M817,269h-1H817z M815,268l-1,1v-1H815z M817,266v1V266z M811,266h1v1v1v1l-1-2V266z
			 M806,263v-1V263z M810,262v1V262z M804,260h-1H804z M788,260v1V260z M805,260v-1V260z M806,259v1h-1L806,259z M786,259l1,1v1h-1
			v-1l-1-1H786z M788,259h-1H788z M808,254h-1H808z M809,254v-1V254z M782,253h1H782z M781,253h2v1l-1-1H781z M809,252v1V252z
			 M775,250h-1H775z M776,250h2h1H776z M775,249h-1H775z M779,249h-1H779z M782,245v-1V245z M783,244h1H783z M783,244h-1H783z
			 M782,243h-1H782z M784,243h-1H784z M782,243h1l-1,1l-1-1H782z M765,243h-2h1H765z M764,242v1V242z M804,242v1h-1h1l-1-1H804z
			 M801,243v1v-2V243z M801,241l1,1v1h-1l1-1h-1V241z M807,241h1v1v-1h1v1l1,1h-1v1h-1l1-1l-2-1h1L807,241z M806,241h-1H806z
			 M822,241v1V241z M805,241h-1H805v1h-1v-1h-1H805z M809,240l1,1v2l-1-2V240z M803,241l1,1h-1l1,1h-1v-1V241v-1V241z M807,240h1
			l1,1h-1L807,240z M811,240h-1H811z M807,240v1h-1h1l-1-1v1v-1H807z M820,240v-1V240z M805,239h-1H805z M825,239v-1V239z M803,238
			l1,1v1l1-1l1,1l-1,1v-1h-1v-1h-1V238z M799,238l1,1l1,1L799,238z M810,238l1,1h-1l-1,1l-1-1L810,238z M811,238h2v1v1v-1l-1,1l-2-2
			H811z M825,237h-1H825z M810,237h1H810z M813,237h1v1h-2l-1-1H813z M810,236v1V236z M812,236h-1H812z M826,236v1v1v1h-1l1-1h-2h1
			l-1-1h2h-1L826,236z M812,235v1h-1L812,235z M808,235h1H808z M743,235h-1H743z M736,234h1l-1,1V234z M813,234l1,1h-1l1,1l-3,1h-1
			l1-1h1l1-1V234z M736,234v1V234z M742,234h1H742z M742,234l-1,1v-1H742z M806,235h-1v-1h1V235z M809,234v1h-1h-1L809,234z
			 M739,234h2H739z M736,234h1H736z M735,234h-1H735z M744,234h-1H744z M812,234v1h-1L812,234v1V234z M812,234l-1,1v1v-1h-1l1,1h-1
			v-1h-1v-1l1,1v-1h1h-1h1H812z M734,234h1H734z M735,233l2,1h-1h-1h1h-1V233z M808,233h1l-1,2h-1l1-1V233z M811,233v1V233z
			 M812,233v1V233z M740,233h-1H740z M737,233h-1H737z M811,233v1l-1-1H811z M741,233h-1H741z M810,233h1H810l1,1h-1h-1v-1H810z
			 M749,233h1H749z M741,233h-1H741z M734,233h1H734z M734,232v1h1h-1V232z M812,232v1h-1L812,232z M749,233v-1V233z M817,233v-1
			V233z M738,232h1H738z M740,232h1l-1,1h1h-1V232z M739,232h1H739z M812,232v1h-1v-1H812z M811,232v1l-1-1H811z M734,231v1V231z
			 M734,231v1V231z M733,231h1H733z M740,231l-1,1v-1H740z M740,231h-1H740z M744,230v1V230z M739,230v1V230z M744,230v1V230z
			 M817,230v1V230z M746,230v1V230z M744,230h1H744z M829,230v1V230z M736,230h1H736z M745,230h-1H745z M817,230v1V230z M743,230h1
			H743z M822,230v1v1l-1,1v-1h-1h1l-1-1l1-1H822z M742,229v1V229z M742,229v1V229z M742,229v1h1h-1V229z M740,229h1H740z M741,229
			h-1H741z M774,229v1h-1v-1H774z M817,228v1V228z M817,228v-1V228z M740,227v-1V227z M771,226v1h1l-1,1v-1V226z M817,226v-1V226z
			 M723,225v1V225z M723,226v-1V226z M723,225v1V225z M723,225h-1H723z M819,224l-1,1v1l-1,3v-1v-2l1-1v-1H819z M731,224h-1H731z
			 M734,224h-1H734z M735,223v1V223z M726,223v1l-1-1H726z M774,224h-1v-1L774,224z M731,223h-1H731z M731,223h1H731z M738,223v1
			l1,1l1,1l-1,1v1v-1l-2,1l2,1h1h-1h-1l2,1h-1l-1,1v-1v1v-1h1h-1l-1-1h1l-1,1h-1v1h-3h-1h1l-1-1h1h-2h-1l-2-1l-1-1h-1h-1v-1v-1v1h1
			l2-1v-1h1h1l2-1h1h3L738,223z M728,223h-1H728z M737,222h1H737z M729,222h-1H729z M738,221h-1H738z M736,218v1h-1L736,218z
			 M733,218h-1H733z M772,218h-1H772z M734,218h-1H734z M766,218h1v1l-1,1h-1l-2-1h1l1-1v1v-1H766z M739,217v1V217z M750,217h-1H750
			z M750,216v1V216z M735,216v1V216z M749,216h-1H749z M758,216v1h1l-1,1l-1-1h1V216h-1H758z M752,215h-1H752z M724,215h1H724z
			 M725,214l-1,1h1h-1v-1H725z M725,214h1l-1,1V214z M723,214v1V214z M723,214h1H723z M754,214h-1H754z M746,214h-1H746z M754,214
			h-1H754z M754,213v1V213z M725,213v1V213z M727,213l-1,1L727,213z M726,213v1V213z M753,213v1h-1v-1H753z M754,213h-1H754z
			 M755,213h-1H755z M755,213h-1H755z M753,213v-1V213z M755,213v-1V213z M719,212v1V212z M718,212h-1v1h1h-1v-1H718z M717,212v1
			V212z M717,212l-1,1v-1H717z M752,212h1l-1,1V212z M725,212l-1,1L725,212z M726,212h-1H726z M728,212h2l-1,1l-2,1v-1l1,1v-1h-1h-1
			h-1v-1h2H728z M743,212h-1H743z M755,212v-1V212z M753,212v-1V212z M754,211h-1H754z M756,211v1V211z M755,211h-1H755z M753,210v1
			V210z M756,210v1V210z M755,210v1V210z M755,210h-1H755z M756,209v1V209z M757,209h-1H757z M756,209h1H756z M754,209v1h-1h1l-1,1
			v-1v1v-1v-1H754z M757,209v-1V209z M757,208v1l-1-1H757z M753,208l1-1L753,208z M756,207h1H756z M757,208h-1H757h-1l1-1V208z
			 M749,207h1v1l2-1v1h1v1v1l-1,2v1v1l-1,1v1h-1h-1h-1l-1-2h-1v-1v-1l-1-1v-1l-1-1v-1l3-1h1H749z M815,206h1v1h-1V206z M752,207v-1
			V207z M756,206v1V206z M756,206v1h-1v-1H756z M756,205v1V205z M728,205v1V205z M741,205h1H741z M741,205v-1V205z M745,204v1V204z
			 M746,204v1l-1-1H746z M747,204v1l-1-1H747z M747,204h1v1h1l-1-1h1h1v1h-2h1v1l-1-1v1h-1l-4,1h-1h-1h-1h-2h1h1v-1h-1h1v-1v-1l1,1
			h1h1l1-1v1h1h-1h1h1h1V204z M733,204v-1h1L733,204z M736,203v-1V203z M735,203v-1h1L735,203z M737,202h-1H737z M742,202v-1V202z
			 M737,201v1h-1L737,201z M736,200v1V200z M744,200l-2,1l1-1H744z M745,200h-1H745z M736,200v-1V200z M738,198h-1H738z M728,196
			l1,1h-1v1l-1-1L728,196z M743,196l2,1l-1,2h-2h1v-1h-1v1v-1l-2,1l1-1h-1v-1h1h-1h1v1l1-1h1V196z M757,196h-1H757z M737,196h-1H737
			z M776,196v-1V196z M734,195h1H734z M781,195l5,1h1h1l1,1l-1,1l1-1l2,1l1-1v1h1l1,1h1h1l1,1l1,1l2,2h1l3,1l1-1l3,1v-1h1h1v1l1-1h1
			h1l1,1l1,1l2,1h-1h-1v1h-1v1l1,1v1l1,2l2,1l1,2l1,1h-1l-1,1v1v1v1l-2,2h-1l1,1h-1h1h-1l1,1v3l1,2v1h-1h1h-1v1v2h1v2v2l1,1l1,1l1,1
			v1v-1v1h1v1h-1h1v1h1l-1,1l1,1v1l1,1v1l1-1l1-1h-1v-3l-1-2l2-1h1h-2l1-1v1v-1h1v1h1l1,2l-1,4l1,1l-2,1l-3,3v1v1l-2,1l-1,2l-2,3
			l4,1l18,6l-5,7l-3,4h-1v-1h-1h-1v-1v-1h-1h-1h1h1h-1h-1v-1v1v-1h1h1l-1-1v-1h1v-1v1v-1h1v1h1h-1v-1h1v1h1h2v-1l-1,1v-1h-1h-2h-1
			h-1h-1h1l-1,1h-1l-1,1h-1l-1-1h1l-1-1h-1l-1-1v1v1l-2-1l2,2h-1l-1-1h-1l-1-1v-1v1v-1l-1,1v-1l2-1h-1v-1v-1h-1v1l-1,1v-1l-1,1h1h-1
			h-1v1l-1-2v-1l1,1l-1-1v-1l-2-1v-2l-1,1l1,3l-1-2l-2,1l1-2l-2-3h1v-1h1l-1,1h1v-1l-1-2v-2h1v-1h1v1v-2h1v-1v-1l1,1h1l-1,1h1v-1h-1
			v-1v-1l1-1l-1,1v-1h-1v1l-1,1h-1l-1,2h-1l1,1v1h-1l1,2v1l-1,1h-1l-1,1v-2l-1-1l1,1h-1l1,2h-1l-1-1h-1h1v-1v1v-1l-1-1l1,1h-1h1
			l-1,1h1v1v-1l1,1h1l1,2v1h-1l-2,2h-1l1-1v-1v-1h1v-1l-1,1v-1l1,1h-1v1h-1h-1v-1h-1v1h-1h1v-1h1l1,1l1,1l-1,1v1l1,1v1l-1,1h-1l-1-1
			v-1h-1v-1v1h1v1h-1h1l1,1h1l-1,2l-1-1l1,1l-1,1l-1,1h-4l-1,1l-2-1v-1l-1-1l-1-1v1v-1l1,1v-1l-2-2v-1l-1-2v-1h1h3v-1l1-1h-1v-1v-1
			l-1,1l-1-1v-2l1-1h-1v-1h-1h1h-1h-1v2l-1-1l-1-1v-1h1l-1-1h-1v-1l-3-3h-2v-1h-2h-1h-1h-1h1h-1l1,1h-1l-1-2v1l-1-1v1v-1h1v-1h-1h1
			v-1h-1h-1l2-1h1v-1l1,1v-1v1l1-1h-2h1h1v-1h3l1,1h1l1,1h-1h1v-1v1v-1v1v-1h1h1l1,1l1,1h1h1h1l3-3l2-3l2-1h1v-1l2,1v1v1l-1-1v1h-1
			h1h1v-1v1v-1v1h1v-1h-1l1-1v1v1v-1h1v1v1h-1h1h-1h1h-1h1v1v-1h-1v1v-1l1,1h-1v1l1-1v1h-2v-1v1h-1h1h-1v1l1-1h1h1v1h1h-1v1h1v-1v1
			v-1v1v-1h-1v-1v1v-1v-1h1v-1v-1h-1h1h-1l1-1v3v1l1,1v-1v1v-1v1l-1-1v-1h1h-1l1,1v-1v1v-1v1h1v-1l1,1l-1-1v-1h1v1h1h-1h1v-1l-1,1
			v-1v1l1-1h-1v-1v1h1l-1-1h1v1v-1v1v-1v1v-1h1l-1,1h1h-1l1,1l-1-1h1v-1v3h-1h1v1h-1v1v1v1v-1v-1h1l-1-1h1v1v-1v1h1h-1v-1v-1h1h-1
			v-1h2h-1h1h-1v1h1v1v-1l1-1v1v1v-1h1v1v-1v1h1l-1-1h1h-1v-1v-1v2h-1v-1v-2l-1-1h1h1h-1h-1l1-1l1,1v-1l1,1l1-1v1v1l1,1l-1-1v-1l1-1
			l-1-1h1v-1v-1v1h-1v-1h1h-1l1-1l-1-1v1v-1v1v-1v-1l-1,1l1-1h1h-1h-1h1v-1v-1v1h-1v1v-1l1-1h-1h1l-1,1v-1v1l-1-1h1h-1l1,1l-1-1l1,1
			h-1h-1v-1h1h-1v1l-1,1v-1h1h-1h-1h1v1h-1v-1v1l-1,1h-1h1v-1v1v-1v1v-1h-1h1h-1v1h1h-1v1v-1h-1l1-1h1v-1v1h-1v-1v1h-1h1h-1h-1v-1
			h-1h-1h1h1v1h1v1h-1h-1h1v-1v1v-1v1h-1v-1v1l1-1h-1v-1v1v-1v1v-1v1v-1v1h1l-1,1v-1v1v1v-1h-1h-1h1v-1v1h-1h1h-1h-1h-1l1-1l-1,1
			l-1-1h1h-1l1,1h-1h-1h-1h-1l-1,1l-2,1v-1v1h-1l-1-1h-1h-1l-1,1l-1-1v1l-1-1v-1h-1h-1l-4,2l-3-3h-1v-1v-1v1h-1h1h-1l1,1l-2-2l1-1h1
			h1v-1h1v-1v1v-1h1h-1v1v-1v1h-1l-1,1l-1-1v1v-1v-1v-1l1,1v-1h1h-1l1,1v-1h1h1l-1-1l1,1v-1h1h-1h-1v1h-1v1l-1-1h1h-1v1l-1-1v1v1h-1
			v1l-1-1h1h-1v1l-1-1h1v-1h1h-1v-1h-1l1-1v1v-1v1v-1h1v1v-1v1l1-1h-1v1v-1h-1v1v-1v1v-1l-1,1v-1h1h-1h-1l2-2v1h1h-1l1-1l1,1l-1-1h1
			v-1h-1v1l-1-1h1h1v-1v1v-1v1v-1h1v-1h-1v1h-1h1v-1v-1v1h-1l1,1h-1v1h-1v-1h1h-1v1h1h-1v1h-2v-1h1v-1v1h-1v-1v-1h1l1-1v-1v1v-1v1
			l-1-1l1-1v1v-1h-1h1v1l-1-1v1v1l-2,1h1v-1h-1h1v-1h-1l1,1h-1h1l-1,1l-1,1l-1-1l1-1v-1h1h-1v-1v1v1l-2,1v-1l1-1v-1l-1-1v1l-1-1h1
			l1-1h-1h1v-1h-1h1l-1,1h1l-1,1h-1v1v1v-1h-1v-1h1l-1-1v1v1h1h-2v1h-1v-1v-1h1l-1-1h1h1l-1-1h1l-1-1v1v1h-1l1,1h-1v1v1v-1h-1l1,1
			h-1v-1v1v1l-2-2h1v-1h1h-1h1h-1v1l-1-1h1v-1v1h-1v-1h-1h1v-1l-1,1l1-1h-1v1h1h-1h-1h1l-1-1l1,1h-1l1,1h-1v-1v1l1,1v1h-1l-1,1l-1-2
			h-2h-2h-1l1-1l1-2v-1h2h1v-1l1-2v-1v-1h1v-1v-1h1l-2-1v-1l4-1l2-1h1l-1,1h1l3-1h3l1-1l2-2l2-1v-1l2-1l1-1h1h1L781,195z M776,195
			h-1H776z M738,195h1H738z M734,195h1H734z M739,195h-1H739z M739,195v-1V195z M744,194v1V194z M738,194v1V194z M733,194l1,1h-1
			V194z M744,194l1,1h-1V194z M741,194v1V194z M738,194h-1H738z M749,194h-1H749z M735,194v1V194z M738,192h-1H738z M735,191l1,1h-1
			V191z M736,191l1,1h-1V191z M745,191h-1H745z M744,190l1,1L744,190z M744,190h1H744z M736,190v1V190z M738,189v1V189z M732,189v1
			l-1-1H732z M740,189h1H740z M750,188v1V188z M747,188h2l1,1h1l1-1v1h2l1,1v1h1h1l1,1l-1,1l1,1l-1,1h-1l1,1h-1h-1v-1h-2v-1l-1,1h-1
			h-1v-1h-1l-1-1h-1v-1l-2-1v-1h-1h-1h1h-1l1,1h-1h1v1l2,2h1h1l1,1l1-1v1v1h-1v1h-2h-1h-1v-2h-1h1v-1l-3,1h1l-1,1l1-1v1l-1,1v-1v-2
			h-1v-1h-1l-1,1h1l-1-1v1l-1-1v1v-1l-1,1v-1h-1l-1-1l2,1l1-1l1,1v-1h1h-1h-1l1-1h-1l1,1l-1-1h-1l1,1h-1v-1h-1h1l-1-1h1h1v1v-1h1h1
			l1-1h1v1v-1v1v-1h1h1h2h-1h1h1h-1L747,188z M733,188v1h1l-1,1l-1-1h1l-1-1H733z M749,187v1V187z M733,185h-1H733z M733,185h1H733z
			 M731,184v1V184z M731,184v1V184z M731,184h1v1v-1v1h-1V184v1V184h-1H731z M727,181h1l1,1h-1L727,181z M728,181h-1H728z M752,180
			h1H752z M754,180v-1V180z M754,179v1V179z M750,180v-1V180z M750,180v-1V180z M754,177v1V177z M754,176v-1V176z M754,175v1V175z
			 M820,171v-1V171z M820,168v1V168z M756,167v-1V167z M757,166v-1V166z" style="fill: rgb(153, 0, 0);"></path>
		<path id="ID8" d="M245,315l1,1l1-1v1v-1v1h1v-1h1v1l1-1v2v2h-1v1v1h-1h-1v-1h-1l-1-2v-1h-1v-2H245z M246,314h-1H246z
			 M248,312h-1H248z M242,311v-1V311z M243,310h-1H243z M241,310h1H241z M240,309h1H240z M242,309v-1V309z M242,308h1H242z M242,308
			h1H242z M242,306v-1V306z M241,305h1H241z M242,305h-1H242z M242,305v-1V305z M241,305v-1V305z M241,304v-1V304z M241,303h1H241z
			 M242,302h-1H242z" style="fill: rgb(153, 0, 0);"></path>
		<path id="ID9" d="M193,210h-1H193z M193,209l1,1h-1V209z M171,204h4v1l1-1h2l-1,1h2v1h1v1l1,1h1h1v1h1v1l1-1l1-1l3,1
			h1l1,1v1v-1h1h1h1h1l1-1l1,2l-1,2l2,3l-1,3l1,4l-1-1h-1v1v1h-1h-2l-3,1h-3l-1-1l-1,1l-3,1h-2l-1,2l-1,4l1,1h-1h-1v1v1v2h-1l-1-1
			l-1-1l-1-2h-1l-1,1v1h1v1l-2,1h-1v-1h-1v1l-3-1l-1,1l1,1l-2,2v1l-1,1v-1l-1,1l-1,1l-1,1h-1h-1h-1h-1l-1-1h-1h-1h-1v1l-2,1l-1,1
			l-2-1h-1h-1l-3-3l-1-1h-1h-1l-1,1v-3l-5-4v-1l-1-3v-1l-1-1l-1-1l-1-5h1h1v1l1-1h3h1h1l1-2l3-2l1-1l-1-1l1-1l-1-1v-1l3-1l1-2h-1v-3
			h1h1v-1h1v-1h1v1h1h1h1l1,1l1-1h1v1l2,1h1l1,2h2h1l1-1h1v-1h1v-1l3-2l2-2h2H171z" style="fill: rgb(250, 171, 24);"></path>
		<path id="ID10" d="M279,312h1H279z M251,312h2l1,1l3-1l1,1l1,1l1,1v1h1l1,1h2l1,1h1l2-1h1v1v-1v1l4,2h1l2-1v-1h-1h1v1
			l2-1l1,1v-1l1,3l1,1l2,1v4l1,2l1,1v-1h1v1h1h1l1-1h-1h1v2l-2,2l1,1v1v2h-1h-1l-1,1v-1l-2,1l1,1l-1,1v1l1,1h1h1v1h1v1v2v1l1,1v1h-1
			h-1h-1h1v1l-1-1h-1h-1h-1v1v-1v1v1l-1,1l-3-1h-5l-1-1h-4v-1l-3-1l-2-2h-2v-1h-2h-2l-3-1l-6-1h-1h-1h-4l-3-1h-1v-1v-1v-1v-1h1h1h-1
			v-1l2-2v-1l-2-1v1h-1v-2l1-1l2-2l-2-1v-2l-1-2v-1h1v-1v-1l1-1v1h1v-1l1,1h4v-1h1v1h1h1v-1v-1h1v-2v-2h1v-1v-1V312z" style="fill: rgb(250, 171, 24);"></path>
		<path id="ID11" d="M290,349h1h1l1,1v1l-5-1v-1h1H290z M289,348v1V348z M289,348v1V348z M289,348h1l-1,1V348z M334,322
			h1l1,2l1,2v1l2,1h1h2l2-1v-1l2,1l3,2l-1,1v1h-1v1l-1,1l1,1v2v1l-2,2h-1v1l-1,1h1l-1,1h1h-1l-2-1l-1-1h-1l-1-1l-1,1v1v1v1v2v1l1,1
			v2l1,1h1v1l1,1l-2,2h-1h-1v1v1v1l-1-1l-1,1h-2l-1,1v2h-1v-1h-1l1-1l-1,1v-1l-1-2l1-4l-1-1v1l-1-1h-1h-2l-1-1l-1-4l-3,2l-1,1v-1h-3
			v1v1l-1,1l-1,2l-2-1l-6-1l-4-1l-1,1v-1v-1v1l-5-1v-1v1h-1h-1l-1,1h-1v-1h1v-1v1v-1h-1l1,1h-1v1v-2v1h-1h-1v-1h-1h-1h1v-1l-1,1
			l-1-1v-1v-2v-1h-1v-1h-1h-1l-1-1v-1l1-1l-1-1l2-1v1l1-1h1h1v-2v-1l-1-1l2-2v-2v1l2,1l1-1h2v-1v1l1,1l3,1l3-1l2-1l1,1h3l4,2h2l3-1
			l1-1h1l1,1l1,1h1h1h1h1h-1l1-2h1v-1v-1v-1v1l1-1l1-1v-1v-1l1-1h-1h1l1-1v-1v1l2-1h2H334z M325,310h1v1L325,310z M326,310h-1H326z
			 M326,310v1V310z M317,309v1V309z M321,309h-1H321z M323,308v1l1,1h-1v1l-1-1h1v-1V308z M318,308v1V308z M319,308h-1H319z" style="fill: rgb(153, 0, 0);"></path>
		<path id="ID12" d="M398,369h1H398z M382,365h2h1l-1,1h-2h-1L382,365z M388,365v-1V365z M388,364v1h-1v-1H388z
			 M370,365v-1V365z M370,364v1h-1L370,364z M351,363h-1H351z M380,341h1H380z M379,339h1H379z M392,339h1H392z M370,338v1V338z
			 M395,338l1,1h-1h-1v-1H395z M378,338h1H378z M409,338h1H409z M411,338h-1H411z M435,337v1V337z M435,337h1H435z M409,337h1v1h-1
			l-1-1l-1,1v-1H409z M433,337h1H433z M433,337h1H433z M413,336v1V336z M411,337v-1V337z M437,337l-1,2h-1l-2-1l1-1l1,1h1v-1v1v-1
			H437z M434,336l-1,1v-1H434z M432,335v1V335z M396,335v1h2v1l-2-1h-1L396,335z M404,335l1,1v2h-2v-1l-1-1h1L404,335z M434,336v-1
			V336z M431,335l1,1h-1V335z M431,335v1h-1v-1H431z M432,335v-1V335z M431,334v1V334z M429,334v1h-1L429,334z M427,334h1H427z
			 M400,334h1H400z M426,333v1V333z M424,333v1V333z M429,333h-1H429z M437,333v1l-1-1H437z M427,333h1H427z M430,333l2,1v1l-1-1h-1
			l-1-1H430z M434,333v1V333z M444,333h-1H444z M395,331l1,1l3,1v1l-3,1h-1h1h-1l-1,1l1,1h-2h-3h-1h-1v1l-1,1v1l-1-1h-3h-3l-1-1v1
			v-1v-1v1h-1v-1v1l1,1h-1l-5-1h-2h-1h-1l1-2h-1v-1h1l1-1l1-1v-1l1,1v-1h2h2h1h7h1h7L395,331z M423,331h4l1,1l2,1l-1,1l-1-1h-1v-1v1
			h-1v-1v1l-1-1v1h1v1h-1h1h-1h-1v-1v1v1l-1-1v-1v1v-1h-1v-1h1V331h-1H423z M349,329l3,1l2-1l2,3h2h1h1h1l1-1l1,1h1h2v-1h1v1h1v1
			l-1-1v1l1,1l1,1v1h-1v1h1h-1h1v1v1h1v-1v1v-1h1l2,2l-1,2l1-1v3h-1l1,1v1v1h1h1l1,1h1l1,1l1,1h1h1l1,1v-1l1,1l1-1h1l1-1h2l2,1l1-1
			l1,1h1v-1h1h1l1-1l1-1h1l1,2h2h1l1,1h2l1,1l1,1l-1,1v1v2l-1,2v2l-1,1v3v2h1v-1l1,3v1l1-1l1,1h1v1v1l-1,1l-2-1h-2l1-1l-2-2h-1h1h-1
			h-1v1l-2-1l-1,1l-1-1h-1v-1h-1v1l-1-1h-1v-1v1v-1h-1h-1h-1h-1v-1l-1-1v1v-1l-1,1l-1-1v-1h-1l-1,1l-2-2l-1-1h-3l-2,1l-2,2v-1v1h-1
			v-1h-1v1l-1-1v1h-1l-1,1l-2-1h-3v-1h-1h-1v-1v1l-1-1v1h-1v-1h-2h-1h-1l-2-1v1h-1l-1-1h-1h-1v1h1h-1v1v-1v-1h-1v1v1h-1h-1v-1v1v-1
			h-1h-1h-1h-1l1-1h-1h-1h-1h-1h-3h-1v-1v1h-1l-3-1v-2l1-1h2l1-1l1,1v-1v-1v-1h1h1l2-2l-1-1v-1h-1l-1-1v-2l-1-1v-1v-2v-1v-1v-1l1-1
			l1,1h1l1,1l2,1h1h-1l1-1h-1l1-1v-1h1l2-2v-1v-2l-1-1l1-1v-1h1v-1L349,329z M432,327h1H432z M433,324v-1V324z M367,308v1V308z
			 M369,307l1,1l1,1l-1,1h-1v1v-1h-1v1v-1h-1v-1l1-1h1V307z M405,304h1v1L405,304z M405,301l1,1h-1V301z M409,293l1,1h-1V293z" style="fill: rgb(153, 0, 0);"></path>
		<path id="ID13" d="M318,248l-1,1l-1-1l1-1L318,248z M316,244v1l-1,1l-1-1l1-1H316z M317,243h-1H317z M315,238v-1V238z
			 M287,223l1,1h-1h-1v-1H287z M295,223h-1H295z M288,222h-1H288z M296,221h1H296z M288,221h-1H288z M288,220v1V220z M288,220v1V220
			z M290,220h1l1,1v1l-2,1l-1-1v-1h-1h1v-1v1h1V220z M301,219h-1H301z M301,219h-1H301z M293,219h1H293z M314,218h-1H314z M311,217
			v-1V217z M296,215l-1,1v-1H296z M290,214v1V214z M297,214l-1,1v-1H297z M296,214v1V214z M298,213v1h-1v-1H298z M303,208l1,1l1-1
			l1,1h1h1v2l1,1l-2,1l-2,1l-2,1h-2l-1-1h1v-1l1-4L303,208z M305,204h1h-2v-1L305,204z M304,203h1l-1,1V203z M305,203v1l-1-1H305z
			 M302,202l1,1h1h-2l-1-1H302z M299,203h2l1,1l2-1v1l2,1h1v1h1v1v1l-1,1h-1v-1h-1v-1l-3-1h-1l1,1h-1h-2l-2-2l1-3L299,203z M300,202
			h1H300z M303,201l1,1h1l-1,1l-1-1h-1l-1-1h1l1,1l-1-1H303z M300,201l2,1h-1h-1V201z M299,200v1h-1v-1H299z M296,192l1,1h-2h-1l1,1
			l-1,1v-1v-2H296z M295,192h1h-2H295z M294,191v1V191z M296,191v1l-1-1H296z M295,191v1V191h-1l1-1V191z M296,190v1v1l-1-2l1-1V190
			z M298,188v-1V188z M298,188h-1v-1h1V188z M297,187v1l-1-1H297z M288,180v-1V180z M290,177v1h-1L290,177z M288,172v1l-1-1H288z
			 M286,171v1l1,1l-1-1V171z M288,170v1V170z M292,162v-1V162z M294,145h1H294z M306,145v1h-1v1l-1,1v1h1v1l2,1l-1,3l3,3h1v1h2v1
			l1,2l2,1l-1,1h1h1h1l1,2l1,1v1h3v1l1,1l1,1h1h1l1-1v1l1-1h1h1v-1h1l1-1h2l5-2l3,2l2-1l1,1v1h1v-1l2-1l1,1h1h1h1l1-1l1-1l4-1v-1
			l1-2l1-2h-1v-1l2-1h1l2-1l1-1h4v1l2-1l2,1v-1h2h1l1,1v1l-2,1v1h1l2-1l1,1h2h2l2,2l2-1l1,1l1,2h1l1-1l2-1v-1v-1l2-1h1h1l3-1l1,2h-1
			v2v1h-1l1,1l-1,1h-1h-1l-1,1v1h-1v1v1l-1,1l1,1v1l-1,1l1,1h-1l-1,1v1l-1,1l-2,1v2l-2,1l-1,1l-2,1h-2l-1,1l1,1l2,1l-1,2l1,1v1v1
			l-1,1h1h-1v1l-1,1h-1l-2,2l1,1v1l-1,1h-1v-1l-1,1h-1h-1l-1,1h-1l-1,1h-2v1h-1l-1,1h-1h-1h-2v1l-1-1l-1,1h-1h-1l-1-2h-1l-1,1v1h-2
			h-1l1,2h-2l-1-1v1v1h-1v1h-3v1l-2,1v1h-1v1v1v1l-2,1h-1v1h-1l-1,1v1h-1v1l-1-1v1h-1v2v-1h-1h-1l1,1l-1,1l-1-1l-1,1v-1l-1,1h-1
			l-1,1v1h1v1h1l1-1v2v1v1v1v1v1h2v1h-1l1,2l-1,2l1,1v3l1,3v1v1h1l-1,1l-3,1v2h-2l-2,1l-1,2h-2l-1-1h1l-1-2v-1h-1l-2,1l-1,1l-2,1h-1
			l-1-2l1-1v-1l-1-1v-1v-1h-1h-1l1-1v-1h1h1h1h1h-1l-1-1h1v-1h1l-1-1h1v-1h1v-1h-1h1v1h-1l-1,1l1,1h-1l-1,2l-2-1v-1h-1v-3l-1-1v-1
			v-1l1-1v-1v-1l-1-1v-1l-3-1l-1-1h1h-1l1-1l1-1l1-1v-3l1-2v-2l-1-1h-1l-1-1v-1h-1l1-2h-1h-1l-1-1l-1-1v-2h1h-1v-1l-1-1h-1v-1h1h-2
			v-1h1h-1h1h-1h-1v-1h1h1h-1v-1h1h1h1v-1v1h-1h-1l1-1l-1,1h-1v1h-1v-1h-1h-1h-1l-1-1h1h1v-1v1h-1h-1h1v-1v1h-1h-1l-1,1l-2-2v1h-1
			v-1v-2v-2v1h1l-1-1v-1h-1l1-1h1h1l-1-1v-1v-1h1l-1-1v-2l3,1l1,1v-1h-1l-2-1l-1-1l-1-1v-1l-1-1l-1-1l-1-1h-1v-1v-1v-1v-3l-1-1v-1
			v-1h-1v-1l1-1h1v-1l1-1v-1v-1l-1-1v-1l1-1l1-3v-2l1-2l1-1l3-1l1-3h1v-1h1l1,1h-1h1v-1h-1v-1l1,1v-1h-1v1h-1v-1h1h-1v1h-1v1l1-1v-1
			l-1-1l1-1h1h1l3-1L306,145z" style="fill: rgb(153, 0, 0); opacity: 1;"></path>
		<path id="ID14" d="M460,294h1v1L460,294z M461,293h-1H461z M432,290l-1,1L432,290z M435,287v1l-1,1v-1L435,287z
			 M433,286l-1,1L433,286z M435,279v1V279z M434,279h1H434z M443,273h-1H443z M443,273v1V273z M439,273v1V273z M442,272v1V272z
			 M447,264h-1H447z M446,263h-1H446z M439,259v1V259z M447,258l1,1l-1,5h-1v-1v-1h-1l1-2l1-1V258z M439,258v1V258z M440,258v1V258z
			 M442,256v-1V256z M444,255v3l1,2v1l-1,1l1,1h-1l1,2l1,1l-2,2l1,1v1h-1h-1v1h-1l-1,1l-1,1v-1l-1,1v-1h1v-2v-1v-1v-2h-1v-2v-2v-1
			l2-3v-1L444,255z M444,252v1V252z M444,252v1V252z M442,251v1V251z M441,250h-1H441z M441,250l1,1h-1V250z M442,248v1h1l-1,1v-1
			V248z M433,216l-1,2h-1l1-1h-1l-1,1v1h-1v1h1h1v1v1h1v2l1,1v2l-1,2l1,1h-1l1,1h1h1v1h-1v2l1,2v2h1v-1h1l1-1l1,1h4h1h2h2l2,1l-1,2
			l1,1h-1l-1,1v-2h-1v1h-1h-1h-1h-1h1h1v1v-1v1l-1,1v-1v1h-1h1v1h-1h1l1-2l1-1l1,1h-1h1l-1,2v4l-2,3h-1v-2h-1h1l-1-1l1,1h-1v-1v-1
			h-1v-1v1v1v1h-1l1,1l-1-1l1,1h-1v1v-1l-1,1h1l1-1v1h1v1l2,1h-1l-1,1l-1-1v1v-1l-1,1v-1v1h1h1v1v1h-1h-1v1v1h-1v1v2l-1,1v1l-3,1
			l-2,2h-2l-1,1h-1l-1,1l-9,3l-8,4h-1v-3l-1-4l1-3v-1l-2-2h-1l1-1h-2l-2-1v-1l1-3l2-3v-2l2-4l2-1v-1h1h1v-1v-2l2-1v-1v-1h1l7-5h1v-1
			v-1l-1-2l2-2l-1-2l2-8h3l2-1l1-1l1-1V216z" style="fill: rgb(250, 171, 24);"></path>
		<path id="ID15" d="M383,257v-1V257z M384,256v1V256z M416,172h1l1,3l2,3v1v1l-1,2l-1-1h-1h-1l-1,2h-1v1h-1l1,1l-1,1h1
			l1,1v2l1,1v2h1h2v-1h2v-1h1v-1h2v1l-1,1v1v1v1h-1l1,2v1l1,1v2h1v4l1,1l2,1l2,2l1,1l1,1l1,1v1l1-1l1,1l-1,2l-1,1l-1,1l-1,1l-2,1h-3
			l-2,8l1,2l-2,2l1,2v1v1h-1l-7,5h-1v1v1l-2,1v2v1h-1h-1v1l-2,1l-2,4v2l-2,3l-1,3v1h-1l-2-2l-1,1l-2-1h-2l-4,2h-3h-1l1-2v-2l-1-2h1
			v-1v1h-1h-1l-2,1l-1,1h-1l-3-3v-1l-2-1h-1v-1l-1,1v1v-1l-1,2l1,1l1-1l-3,3l-2,1h-1h1l-3,1l-1,1l-1,1l-2-1l-1-1l-2-1h-2l-1,1l-2,1
			l-4,3h-1h-1l-1-1l1-1v-1v-4v-3v-2l-2-2l1-1l-1-1v1l-1,1l1,1l-2,1l-1,1l-1-1l-1-1h-1h-1l-1-1l-4,3l-3,1h-2l-1-2h-1h-1l1-1l2-1h1
			l1-2l3-1l1-1h-1v-1v-1l-1-3v-3l-1-1l1-2l-1-2h1v-1h-2v-1v-1v-1v-1v-1v-2l-1,1h-1v-1h-1v-1l1-1h1l1-1v1l1-1l1,1l1-1l-1-1h1h1v1v-2
			h1v-1l1,1v-1h1v-1l1-1h1v-1h1l2-1v-1v-1v-1h1v-1l2-1v-1h3v-1h1v-1v-1l1,1h2l-1-2h1h2v-1l1-1h1l1,2h1h1l1-1l1,1v-1h2h1h1l1-1h1v-1
			h2l1-1h1l1-1h1h1l1-1v1h1l1-1v-1l-1-1l2-2h1l1-1v-1h1h-1l1-1v-1v-1l-1-1l1-2l-2-1l-1-1l1-1h2l2-1l1-1l2-1v-2l2-1l1-1v-1h1v1l2-1h1
			h1l1-1l1,1v1v1h1v1h2l2,1l1-1v-1h2v-1h1v-1l1,1l1-2h1h1l1-1v1h1L416,172v-1V172z" style="fill: rgb(153, 0, 0); opacity: 1;"></path>
		<path id="ID16" d="M472,239v-1V239z M473,236v-1V236z M449,232v1l-2,1v-1v-1h1H449z M444,223v-1V223z M453,211v1V211z
			 M453,211h1v1L453,211z M454,211v-1V211z M469,207h-1H469z M467,206h1l-1,1V206z M465,206v-1V206z M469,205h1H469z M465,205v1V205
			z M469,205h1H469z M465,205l1,1h-1V205z M466,204l1,1v1h-1h1v1h-1v-1l1-1h-1V204z M466,204h1H466z M468,203l1,1l1,1l-2-1V203z
			 M466,203v1V203z M467,202l1,1v1h1l-2-1V202z M466,202v2v1v-1v-1v1v1v1v-1h-1v-1h1l-1-1L466,202z M468,202l1,1h1h2v1h-2v-1h-1h1v1
			l1,1h-1l-1-1v-1h-1l-1-1H468v1V202z M469,202h1H469z M469,201h1v1v-1l-1,1V201z M466,201l1,1v1v-1v1l1,1l1,1l-1-1v1v1l1,1l-1-1
			l-2-2v-1v-1V201z M469,199v1h1h-1h1v1h1v1h-1v-1h-1h-1h1v1h-1v-1h-1h1v1h-1h1v1l-1-2h-1l-1-1h1h1h2V199z M469,198v1V198z M471,198
			v1V198z M471,197h-1H471z M471,197h-1H471z M472,196v1v1h-1h-1v1h-1h1h1h-1h1h1l-1,1l-1,1v-1l-1-1l-1,1v-1L472,196z M470,196v1
			V196z M470,195l1,1h-1v1v-1h1l-1,1l-1,1v-1L470,195z M470,195v1h-1L470,195z M469,195h1l-1,2h-1v-1h1V195z M470,187h-1l1-1V187z
			 M470,186h-1H470z M490,173v1V173z M480,172l1,1h-1V172z M496,171h1H496z M481,169v1l-1-1H481z M499,169h1H499z M481,168v1V168z
			 M480,168v1V168z M492,160h-1l1-1V160z M492,159h-1H492z M491,159h1H491z M491,158v1V158z M490,159h-1v-1h1V159z M491,158h-1H491z
			 M490,157v1h1h-1l1,1h-1v-1V157z M488,144h1l-1,1V144z M473,145v-1V145z M473,144l1,1h-1V144z M476,144h1H476v1l1-1l1,1l-1,1v-1v1
			v-1l-1,1v-1v1v-1h-1h1v1v-1v1h-1v-1l-1,1v-1L476,144z M496,144h-1H496z M487,143v1V143z M478,143v1v1l-1-1L478,143z M478,143h-1
			H478z M491,143l1,1L491,143z M476,142v1v1h-1h1h-1h-1l1-1h-1h1L476,142z M473,143v-1l1,1H473z M475,142v1h-1v-1H475z M478,142v1
			l-1-1H478z M477,142l1,1h-1V142z M476,142l1,1h2v1h-1v-1h-1v1h-1V142z M478,143v-1l1,1H478z M474,142h-1H474z M493,141h1H493z
			 M493,141h-1H493z M492,140l1,1L492,140v1l2,2l-1-1l-1-1V140z M484,138l1,1L484,138z M465,134h2l1,2h1h2h1l2,3l3,1l1-1l1-2h1v1h1
			l-1,1h1v-1l1,1v1v-1v1v1l-1,1l-2,1l-1-1h-2l-2,1v-1h-1l1,1v1v1l-1-1v1l-1-1h1h-1v-1v1l1,1h-1h1h1v1l1-1v1h1h-1h1v1l1-1v1h1l-1,1
			v-1h-1l1,1v1v1v-1h1v1h1l2,1v1v-1v1v-1l2,3l3,2l2,1h1v1h-1h1v1h1v1v-1v1l1-1v1v-1v1h1v-1v1l4,3v1h-1h1h1h-1l1,1l1,1h2l1,1l-1,1
			l-1,1v1h-1l-1,1h-1h-1l-1-1h-1l-1,1h-2v-1v-1v1v1l-1-1v1h-1h-1v-1l-5-1h-1l1-1h-1h-1v-1v1l-1-1l1,2l1,1v2h-1l-1-1h-1l-3,1l-1,1v2
			h-1v2l-1,1v1l-1,1v-1v1v1h-1v1v1v1h-1h1l-1,1h1v1h-1v1h1v1v1l-1,1v2l-1,1v1h1v1v1h-1v1l1,1l-1,1v-1v1v-1v1v1h-1h-1h-1v1l1,1l-1,1
			v1v1l-2-1v1h-1h1h1l1,2l-2,1l-2,3l-1,1l-1,1l-2,2h-2v-1v-1h1h-1h1h-1v-1v-1h-1v-2l1-1v1l-1-1v1v-1v1v1l-1-1l1,1h-1h1l-1,1v1h1v1
			h-1h-1h1h1l1,1l-1,1v1l-3,2l-1,1v1v1l-1,1h1h-1l-4,1h-1v-1l-1,1v-1v1l1-1v1h1v1h-1h-1v-1h-1h1h-1h1v1h1v1h-1h-1v-1v1v1v-1h-1h1v1
			h-1h1v-1v1h1v-1h-1h1v1v-1l1,1l2-1v1h1h-1v-1h2v1l-1,1h-1h-1h-1v1v-1h1h1l-1,1h1v-1h1h1v1v3h-1l-1,1l-1-1h-1l-2-1l1,1h-1h2h1l1,1
			h-1v1h-1h1l-2,1h-1h1l1-1h1l2-1l-1,2h1h-1v1v-1v1h-1h1v1v-1v-1l3-1h1v1h-1v1h-1h1v-1h1l1-1v1l-1,4l-3-1h-3h-1h-4l-1-1l-1,1h-1v1
			h-1v-2l-1-2v-2h1v-1h-1h-1l-1-1h1l-1-1l1-2v-2l-1-1v-2h-1v-1v-1h-1h-1v-1h1v-1l1-1h1l-1,1h1v-1l1-1l1-2l1-2l-1-1l-1,1v-1l-1-1
			l-1-1l-1-1l-2-2l-2-1l-1-1v-4h-1v-2l-1-1v-1l-1-2h1v-1v-1v-1l1-1v-1h-2v1h-1v1h-2v1h-2h-1v-2l-1-1v-2l-1-1h-1l1-1l-1-1h1v-1h1l1-2
			h1h1l1,1l1-2v-1v-1l-2-3l-1-3l-1-1v1l-1,1h-1v-1l-1,1h-1h-1h-1v2l-1-1v1h-1v1h-2v1l-1,1l-2-1h-2l-1-1v-1v-1l-1-1l-1,1h-1h-1l-2,1
			v-1h-1l1-1h1l-1-1l1-1l-1-2l1-1v-1l-1-1h1h1v-1l1-1h1h1l1-1l-1-1h1v-1v-2h1l1-1h1l2-1v-1l3,2h1v-1l2,3l5,1l2,2l2,2h4h3l1-1v-4l6-1
			l2-1h1l1-2l1-1l4-6l-1-1v-1l1-1h1l1-6v-1h2l1-1l1-2l1,1l3,1h2l1-1l1-1h2l2-2H465z M472,116l1,1v3h-1l-1-1l-1-2l1-1H472z" style="fill: rgb(153, 0, 0); opacity: 1;"></path>
		<path id="ID17" d="M472,129v1V129z M473,129v1l-1-1H473z M474,128v1h1l-2,1v-1L474,128z M471,127l3,1h-1h1h-1h-1h1h-1
			h1h-1h1h-1h-1V127z M474,127h-3h2H474z M471,127v-1V127z M473,126h-1v1v-1H473v1V126l1,1h-3v-1h1H473z M472,126h1H472z M471,125v1
			h-1h1h-1h1l-1,1v-1h-1L471,125z M469,124h-1H469z M471,124h-1H471z M472,124h-1H472h-1H472z M472,124h1H472z M470,124h1H470z
			 M469,124h1H469z M470,124v-1V124z M471,124v-1V124z M471,123v1V123z M469,123h1H469z M470,123v1V123z M472,123v1h-1v-1H472z
			 M470,123v1V123z M470,123h1v1v-1H470z M469,123h1H469z M467,123l1,1h-1V123z M469,123v1V123h-1v1v-1H469l-1,1v1h-1v-1h1l-1-1H469
			z M472,123h-1H472z M464,122v-1V122z M466,121h-1H466z M465,120h-1H465z M467,120v-1V120z M469,118l1,1v1h-1v-1v1h-1h1v-1l-1,1h-1
			v-1h1L469,118z M470,118h-1H470h-1H470z M470,118h-1H470z M469,117v1V117z M468,117v1V117z M470,117v1h-1h1V117z M470,117h-1H470z
			 M469,117h1H469z M469,117v1V117z M470,117h-1v1v-1H470z M467,116l2,1l-1,1v-1h-1V116z M469,116h-1H469z M466,115v1V115z M471,115
			h-1H471z M470,114v1V114z M470,114v1h1h-1V114z M470,114h1l1,1h-1v1v-1v-1v1h-1V114z M468,113v1h2h-1l1,1h-1v-1v1v-1h-1V113z
			 M468,113v1V113z M468,113v1l-1-1H468z M471,113h1l1,1h-1h-1l-1-1H471z M465,113l1,1h1h1h-1v1v-1v1h1h-1l1-1l1,1h-1h1h-1h1h1h-1v1
			v-1h1l-1,1l-3-1h-2v-1v-1H465z M476,113l1,1l1,1l-1,1l-2-1v-1L476,113z M470,113v1l-1-1H470z M470,113h1H470z M468,112v1l1,1h-1
			v-1h-2h-1h2h1V112z M467,112v1h-1v-1H467z M469,111h1h-2H469z M475,110h1H475z M476,109v1V109z M472,109h1l4,2h-1h-1v-1h-1l1,1v1
			h-1l-1,1l-1-1l-2-1l-1-1l1-1h1H472z M475,107l1,1h-1h1l1,1h-1v-1v1h-1v-1l-1-1H475z M470,104h-1H470l1,1v1v-1l1,1h2v1h-2l-1-1h-1
			h-1v-1v-1l1-1V104z M470,103h-1H470z M472,102h-1h-1h1v-1v1H472z M473,101l2,2l-1,2h-1l-1-1v-1v-1L473,101z M474,99h1l1,1l2,1l1,1
			v1l-1,1h-1l-5-4h1L474,99z M451,98l1-1h1h1h1l1,1l1-1h2l1,1v-1l1,1l1-1h2l2,1l1,1h1l1,2h1h1h1l-1,1h-1h-1v-1v1h1h-1h-1v-1h-1h-1
			v-1v1v-1h-1h1v1h-1h1h1l1,1h-1h-1h1l-2,1l2-1l2,1v1v-1l-1,1v-1v1h1h-1l1,1h-1h1h-1v1h-1h1h1v-1v1h-1h1h1l2,1h1l2,1h-1v1v-1l2,1h-1
			l1,1l-3-1h-1v-1l-1,1l1-1v1h-2l-1,1v-1v1v1h-1v-1h-1h1v1l-2-1h-1l-1-1l-1,1h1v-1v1h1l3,1h-1h-1h1v1v-1h-1v1v-1v1v-1v1h1v-1h1h2v1
			h-1h1v1l-3-1h-2l-1,1l-1,1l1,1v1h-1h-1h1v1v-1v1l1-1v1v-1v-1l2,1v1v-1h-1v1v-1l1,1v1h-1h1l-1,1h1h-1l1-1h-1h1v-1v-1h1v1h1v2h-1
			l1-1h-1v-1v1v1h-1h1v1h1l-1,1h-1v-1h-1v-1v1h-1h-1h-1h1l2,1h-1h1h-1v1v-1l1,1l1-1v1h-1v1v-1v1v-1h1h2h-1v1l1-1h1v1h-1h-1v1v1h1
			l1-1v1l1-1h1v1h-1v-1v1h1v-1h1v1h-1h1l-1,1v-1h-1h-1v1v-1h1l-1,1h1v1h1h-1l1,1h1v1l1-1v1h-1l-1-1v1v1v-1v1v-1l1,1h1h1l1,1h1v2l3,4
			l-1,2l-1,1l-3-1l-2-3h-1h-2l-1-1l-1-1h-2h-4l-2,2h-2l-1,1l-1,1h-2l-3-1l-1-1l-1,2l-1,1h-2v1l-1,6h-1l-1,1v1l1,1l-4,6l-1,1l-1,2
			l-3,1l-6,1v4l-1,1h-3h-4l-2-2l-2-2l-5-1l-2-3l1-2h1l1-2v-2l-1-1h1v-1h1l1-1h1v-1v-1h-1v-1v-1h-1l1-3h2l1-1h-1l1-1l2-1h1v-1v-1h2h1
			v-1h-1l-1-1h-1v-1v-1v-1h1v-1l-1-1l1-1v-1l2-1l1-2v2h2l1-1h1v-1l1-1v-1h1l-1-1v-4l1-1l1,1v-1v-1l-1-3v-2l1-3l-2-1h2v-1l1-4l1-1
			l1-1l1,1v-1l1-1v-2h1v1h2v1l1,1l1-1l1-1v-1l2,1l2-1l1,2h1h1h1v-1v-1l1,1V98z" style="fill: rgb(153, 0, 0);"></path>
		<path id="ID18" d="M198,202v1V202z M198,202v1V202z M194,201h-1H194z M189,198v1V198z M192,196h1v1h-1V196z
			 M192,195v1h1h-1V195z M192,195v1V195z M193,195h-1H193z M194,195v1V195z M191,195h1v1L191,195z M198,195l1,1l1,1l1,1h-1l-1,1v1v1
			h-1l-1-1l-1,1v1h-1v-3l-2-1h1v-2h1v-1v1v1v-1l1,1l1-1v-1H198z M209,194v1V194z M210,194h-1H210z M198,194v1h-1l-1-1h1H198z
			 M201,194h1H201z M198,193v1V193z M201,193h-1H201z M205,192h-1H205z M207,191h1H207z M209,190v1V190z M203,190h1v1L203,190z
			 M203,189v1V189z M202,189h1H202z M206,189l1,1L206,189z M202,189v-1V189z M202,188v1V188z M206,188h-1H206z M199,187l1,1h-1V187z
			 M199,187l1,1h-1V187z M200,187l2,2v1h-1h1l2,1v1h1v-1l2,2l1,1h1h-2l1,1h-1h-1l-3-3h-1l-1,1h-1l-1,1v-1h-2v-1l1-1h1v-2v-1h1V187z
			 M198,187h1H198z M199,187h-1H199z M199,187h1H199z M204,187h1H204z M198,186h1H198z M200,186h-1H200z M204,186h-1H204z M200,186
			h-1H200z M199,186h-1v-1h1V186z M199,186v-1V186z M198,185h-1H198z M198,185v1V185z M198,185h-1H198z M256,185l-1,1v-1H256z
			 M193,185h-1H193z M198,185h1v1L198,185z M197,185l2,1l-1,1l1,1l-1-1l-2-2v1h1V185z M198,184v1V184z M194,184v1V184z M198,184v1
			V184z M194,184v1V184z M196,185v-1V185z M198,184v1V184z M194,185h1v1v-1l-1-1V185z M198,184l1,1h-1V184z M198,184v1V184z
			 M192,185v-1V185z M194,184h-1H194z M197,184v1V184z M198,184h-1H198z M196,184v1l1,1l-2-2H196z M193,184v1l-1-1H193z M197,183v1
			V183z M195,184v-1V184z M195,183v1V183z M198,183l1,1h-1V183z M196,183v1V183z M199,183l3,3l1,1v1l-2-2l-1-1v-1l-1,1v-1l-1-1H199
			v1V183z M273,183h-1H273z M197,183h1H197z M198,182v1V182z M199,183l-1-1L199,183z M195,182h-1H195z M196,183v-1V183z M195,182v1
			V182z M196,182v1V182z M196,182h1H196z M195,182l1,1L195,182z M197,182h1H197z M198,182v-1V182z M195,181h-1H195z M198,181h-1H198
			z M195,181l1,1h-1V181z M195,181v1V181z M194,181h1H194z M198,180v1V180z M195,180l2,1v1v-1v1h-1v-1h-1h1L195,180z M194,180h1H194
			z M197,180h1H197z M200,179v1V179z M199,179h1l-1,1V179z M197,179h-1H197z M196,178v1V178z M196,178v1V178z M197,178v1V178z
			 M196,179v-1V179z M197,178h1H197z M198,178v1l-1-1H198z M180,178h1H180z M181,177v1V177z M197,178v-1V178z M181,177h-1H181z
			 M194,177v1V177z M181,177h-1H181z M180,177h1H180z M179,177v-1V177z M183,176h1v1h-1V176z M193,176v1V176z M180,177v1l-1-2
			L180,177z M181,176h-1H181z M183,176h1H183z M254,176h-1H254z M195,176v-1V176z M181,175v1V175z M253,175v1l-1-1H253z M192,175
			l1,1h-1v1v-1V175z M250,175h1H250z M182,175h-1H182z M252,175h-1H252z M181,175h-1H181z M182,175h-1H182z M251,174v1V174z
			 M193,174v1V174z M179,174h1H179z M195,174h1H195z M179,174h1H179z M194,174h1H194z M178,174v1h-1L178,174z M179,174h-1H179z
			 M180,174h-1l1-1V174z M195,173v1V173z M178,173v1V173z M193,173l1,1v1L193,173z M205,173h-1H205z M183,173v1l-1-1H183z M183,173
			h-1H183z M181,173h1H181z M192,173v-1V173z M258,172h-1H258z M179,172v1V172z M201,172h-1H201z M202,172l-1,1L202,172z M188,172
			h-1H188z M183,172h-1H183z M181,172h-1H181z M195,172h1v1l-2-1H195z M203,172h1v1h-1V172z M182,172h-1H182z M188,172h-1H188z
			 M188,172h-1H188z M184,172h-1H184z M183,172h-1H183z M186,172h-1v-1L186,172z M205,172v-1V172z M203,172h1H203z M201,171v1V171
			l1,1h-2h1l-1-1H201z M179,171v1h-1L179,171z M200,171v1h-1L200,171z M182,172v-1V172z M194,171v1l1,1h-1h-1l1,1l-1-1h-1v-1v-1l1,1
			L194,171z M182,171h1H182z M193,171h-1H193z M179,171h-1H179z M202,171h-1H202z M191,172v-1V172z M195,171h-1H195z M182,171l1,1
			h-1l-1-1H182z M201,170v1V170z M181,171v-1V171z M196,170v1V170z M182,170v1V170z M202,170h-1H202z M202,170v1h-1L202,170z
			 M181,170l1,1L181,170z M187,170h1H187z M183,170h1H183z M176,170h1h1v1v1l-1-1L176,170z M184,170v-1V170z M183,169l1,1l1,1v1h-1
			l-1-1l-1-1L183,169z M184,170v-1V170z M198,170h-1H198z M189,169v1V169z M184,169v1V169z M202,169v1V169z M202,169h1v1h-1V169z
			 M262,169v1V169z M201,169h1v1h-1V169z M175,169l1,1v1h1l1,1l-1,3l-1-1l-1-1v-2V169z M184,169l2,1v1l1,1h-1l-1-2L184,169z
			 M183,169v1V169z M188,169h-1H188z M184,169h-1H184z M174,169h1H174z M175,169h-1H175z M188,169h-1H188z M193,169h-1H193z
			 M187,169h1H187z M177,169l1,1h-1l-1-1H177z M175,169h1H175z M178,170v-1V170z M175,169h-1H175z M191,169v-1V169z M187,168l1,1h-1
			V168z M175,169v-1V169z M208,168v1l-1-1H208z M183,169v-1V169z M177,168v1V168z M192,168v1h-1L192,168z M204,168v1V168z M188,168
			h1H188z M192,168h1H192z M184,168l-1,1v-1H184z M261,168v1V168z M176,168l1,1h-1V168z M191,168v1h1v1h1h1l-1,1h-1v1l-1-2h-1v-1v-1
			H191z M177,168v1V168h-1H177z M259,168h1H259z M185,168h-1H185z M190,168v1l-1-1H190z M191,168h1l-1,1V168z M260,168h1v1h-1V168z
			 M184,168h-1H184z M259,167v1V167z M184,168v-1V168z M190,168v-1V168z M191,168h-1v-1h1V168z M193,168v-1V168z M184,168v-1V168z
			 M174,168l-1-1h1V168z M259,167h1l-1,1V167z M193,167h1v1h-1V167z M187,167h1v1L187,167z M188,167h-1H188z M185,167h-1H185z
			 M196,167h1H196z M191,167h-1H191z M191,167h1H191z M258,167h1H258z M262,167h1l-1,1l1-1l-1,1V167z M192,167h-1H192z M205,167h1v1
			h-1h1L205,167z M184,167v-1V167z M195,167v-1V167z M191,166v1V166z M191,166v1V166z M259,167v-1V167z M192,166h-1H192z M186,166v1
			h1l1,1l-1,1l-2-1v-1L186,166z M186,166l1,1h-1V166z M185,166h-1H185z M261,166h1H261z M184,166v1v1l-1-1v-1H184z M185,166h-1H185z
			 M184,166h1H184z M192,166v1l-1-1H192z M185,166h1l-1,1V166z M185,166h-1H185z M186,166h-1v-1L186,166z M186,166l-1-1h1V166z
			 M185,165h1H185z M186,165h1H186h1H186z M185,165v-1V165z M186,165v-1V165z M174,164h-1H174z M186,164v1l-1-1H186z M175,164l1,1
			h-1l1,1l1,1h-2l-1-1v-1L175,164v1V164z M174,164v1V164z M174,164h-1H174z M175,164h1H175z M249,163h-1H249z M190,163l1,1v2h-1v1
			h-1h-1h-1l-1-1v-1l1,1v-1v-1l1,1v-1v1v-2h1v1h1v1v-1V163z M200,162v2l1,1l1,1l-1,1l1,2h-1v1v1l-3-1l-1-1h1l1-1l-1,1v-1h-1h1h1
			l-2-1h1l1-1l-1,1v-1h-1l-1,1h-1v-1v1h-1h-1v-1v-1l2-1v-1h1l3,1v-1h1V162z M252,160v1V160z M227,139h1H227z M292,137v-1V137z
			 M294,136h1H294z M231,135v1V135z M291,136h1v1h-1V136v-1V136z M296,135h-1H296z M292,135h2h1v1h-1h-1v-1H292z M236,133v1V133z
			 M295,133h1H295z M283,131l1,1l-1,1v-1h1L283,131v1h1L283,131z M236,131h-1H236z M289,131h1H289z M233,130h1v1L233,130z M291,130
			v1h-1L291,130z M234,129h1v1v1l-1-1h1h-1V129z M233,129h-1H233z M226,128h-1H226z M233,127v1V127z M287,127v1V127z M223,127h1H223
			z M233,127h-1H233z M234,126v1V126z M224,126h-1H224z M235,125v1V125z M233,125v1V125z M290,125v2v1l-1,1l-1-1l1-1v-2H290z
			 M227,125h-1H227z M267,125h1v1h-1l-1-1H267z M238,125h1H238z M229,124v1V124z M238,124v1V124z M238,125v-1V125z M235,124v1l-1-1
			H235z M289,124l1,1h-1V124z M224,124v1l1-1l-1,2h1l1-1v1h1h-1v1v1l-1-1v1h-1l1,1h-1v-2v-1l-1-1h1V124z M223,124h1H223z M230,124
			l-1,1L230,124z M229,123v1V123z M229,123v1V123z M221,123h1v1h-1V123z M237,123v1V123z M237,123v1V123z M237,124v-1V124z M235,123
			v1V123z M224,123v1V123z M223,123h1H223z M223,123v1h-1L223,123z M232,123h1H232z M232,122v1V122z M238,122v1V122z M239,122v1h-1
			L239,122z M232,122v1l-1-1H232z M238,122h-1H238z M237,122l-1,1L237,122v1l-1,1v-1L237,122z M236,122v-1V122z M238,122v-1V122z
			 M239,121v1V121z M236,121v1V121z M240,121v1V121z M236,120v1V120z M235,120l1,1v1v1v1l-1-1h-1v-2L235,120z M237,120h-1H237z
			 M239,120l1,1h-1V120z M236,119v1V119z M239,119v1h-1L239,119z M238,119h1H238z M229,119v-1V119z M231,118v1V118z M237,118l-1-1h1
			V118z M237,117v1V117z M239,117h1l-1,1V117z M236,117v1v2v-1h-1l1,2l-1-1v-1v-1L236,117z M235,118v-1V118z M235,117l-1,1h1l-1,1
			v-1v-1H235z M239,117v1V117z M237,117v1v1v-1V117z M273,113h1H273z M273,113v1l-1-1H273z M273,113h-1H273z M273,113v-1V113z
			 M275,112h-1H275z M274,112v1h-1L274,112z M273,111v1V111z M273,110v1h1h-1V110z M274,109v1V109z M272,108v1l-1-1H272z M270,106v1
			h-1L270,106z M270,104h-1H270z M273,102h1H273z M272,102h-1H272z M269,101v1h-1L269,101z M276,100h1l-1,1l1,1v1h1l1,1v1h1v1v1h-1
			l1,1v-1v2h-1l-1,1v2h-2h-1l-1-1v1v-1v-1h1v-1h1l1,2v-1l-1-1h-1l-2-1v-1h-1l-1-1l1-1l-1-1h1v-1h1l1-1l1-1L276,100z M276,100v-1V100
			z M276,99v1V99z M272,88l-1,2v1l-1-1L272,88z" style="fill: rgb(250, 171, 24);"></path>
		<path id="ID19" d="M218,316h1v1h-1V316z M218,315v1V315z M219,315v1l-1-1H219z M217,315v1V315z M219,312h1l-1,1V312z
			 M197,311h1H197z M225,311h-1H225z M226,311h-1H226z M220,310v1h-1L220,310z M226,310l-1,1v-1H226z M221,310h-1H221z M216,310v-1
			V310z M215,309l1,1h-1h-1L215,309z M216,309v1l-1-1H216z M205,308l1,1v1h-1v-1V308z M214,308h-1H214z M214,306v1V306z M214,306v1
			l-1-1H214z M214,306v-1V306z M216,267h2v1h1h1v1h1v1h1h-1l1,2v1v-1h1v1l1,1h1h1v1v3l1,2h-1l2,1v1v1v1v1v1h-1v2v2l1,1l-1,1v1v5
			l-1,1v3v2v1v2v2l-1,2h-1v-1h-2l-1-1v-1v-1v-1h-1v1l-1-1l-1-1l-1-1l-1-1v-1h-1h-1l1,1h-1v1h1h-1v1l-1-1v1v1l1,1h-1l-1,1l1,1v-1l1,1
			h-1h-1h-1v-1h-1h-1v-1h-1h-1v-1l-1-1h-2l-1-2h-2h-1l-1,1l3,3v1l1,2v1l1,1h-4v-1l-2-3l-1-1l-2-1v-1l-1-1l-1-1h-1l-1-1l-1-1l-1-1v-1
			h-1v-1l-2-1l1-1v-1h-2v-1l-1-1h-1v-1h-1h-1v-1h-1l2-2v-1h1h1h1v1v2h1v1l1-2h2l2,1l1-2h1v1h1h1l1-1v-1l-1-1v-1h-1v-1l1-1v-3l1-2
			l1-1h1l3-2l1,1h2h1l1-1l2-1h1l1-1v-1h1l1-1h-1l1-1v-1h1v-1h1v1l1-1v-1v-1l1-1V267z" style="fill: rgb(153, 0, 0);"></path>
		<path id="ID20" d="M613,230l1,1h-1V230z M646,230h1H646z M645,229h1v1h1l-1,3l2,5v1v1l-1-1l-1-1v-2l-2-2l1-1l-1-1
			v-1L645,229z M646,229h-1H646z M612,229h1v2l-1-1V229z M642,229v-1h1L642,229z M635,227v1V227z M681,226v1V226z M681,226h-1v1v-1
			H681z M657,226h-1H657h-3H657z M612,225v1V225z M612,225h-1H612z M635,225v1l1-1v1h1v-1v1h1h1h2h1v-1v1h1l2-1l5,1h1h2h1l-2,1h-1
			h-1h-2l-3,1h-1h-1h-1h-4l-1,1l-1-1l-1,1v-1v-1h-1v-1v1h-1v-1h1v-1H635z M612,225h1H612z M637,225h1H637z M641,225h-1H641z
			 M611,224l1,1h-1V224z M609,224v1h-1h1h-1h1h-1L609,224z M613,223l-1,1v-1H613z M626,223h1H626z M616,222v1l1-1h2l2,1h1h1l1,1v-1
			l1,1v-1v1h1h1l-1,1h1v-1l1,1v-1h1h-1v-1h1v1l1-1v1v1h1v-1h1v1h1v2h-1h-1h-1h-1l-1,1l-1-1l-1,1h1l-1,1l-2-1l-1-1l-2,1l-2,1l-3,1h-2
			l-1-1l-1-2v-1l1-1v-1v-1v1l1-1h2V222z M616,222h-1H616z M696,221v1l-1,1v-1L696,221z M691,221h-1H691z M690,220h1H690z M690,220
			h-1H690z M704,219v1h-1L704,219z M704,219v1V219z M702,219v1V219z M688,219h1H688z M676,219v1V219z M675,216v1V216v1h1l-1,1l-1-1
			h1V216v1V216z M681,216h1h1h1v1l1,1h1h1l2,2v-1l1,2h1l1,1v1l-1,1h-2l-1-1h-1h-2h-2l-1,1h-1h-1h-2l-1-1h-1v-1v-1v-1l1-1h-1l1-1h-1
			l1-1v1h1h1L681,216z M676,215h1v1L676,215z M682,215h1H682z M683,215v-1V215z M682,214h1l-1,1V214z M679,212l1,1l2,1v1h-1l-1-1h-2
			v-1L679,212z M698,212h-1H698z M676,212l1,1h-1V212z M696,212h1H696z M697,211v1V211z M696,210l1,1h1v1l-1-1h-1V210z M693,210h1
			H693z M692,209v1V209z M692,209h-1H692h-1H692z M696,209h1H696z M697,209h-1H697z M696,209v-1V209z M697,208v1h-1L697,208z
			 M695,208h1l1,1l-1,1v-1v-1H695z M691,205v1h-1L691,205z M692,205h-1H692z M671,204h1H671z M700,202v1V202z M671,202h1H671z
			 M674,202v-1V202z M700,201l1,1h-1V201z M675,202v-1V202z M699,201h1H699z M701,201h-1H701z M675,202l-1-1L675,202z M701,201v1
			V201z M701,201h-1H701z M675,201v1l-1-1H675z M673,201l1,1v1l1,1l-1,1l-1-1h-1h-1v-1l1-1v-1H673z M675,201h1v1h-1V201z M699,200
			l1,1h-1V200z M676,200v1V200z M699,200v1V200z M697,200v1V200z M681,200h-1H681z M697,200h1H697z M673,199v1V199z M696,199h1v1
			L696,199l1,1h-2L696,199z M673,198l1,1h-1V198z M674,198v1V198z M674,198h-1H674z M683,197v1l-1-1H683z M682,197h-1H682z M675,195
			h-1H675z M683,195l1,1h-1V195z M671,195h-1H671z M670,194v1V194z M679,194v1h1v1h1v1h1v1v1l-2,1v1h1v1l1,1l1-1h1l2,1v1h1h-1l1,1
			h-1l-1,1h-2l-1-1h-1l1-1h-1v-1v1l-3,1h-1v-2l1-2h-1h-1v-1h-1l-1-1v-1l1-2v-1h1l1,1v1v-1h1v-1h1V194z M679,194h1H679z M674,194h-1
			H674z M673,193v1h1h-1v1l1,1h-1l1,1l-1,1l-1,1h-1h-1l1-1h-1h1l-1-1v-1h1v-2h-1l1-1H673z M669,193h1l-1,1l-1-1l1,1V193z M671,192
			h-1v1v-1H671z M718,190h1H718z M674,190l-1,1l-1-1h1H674z M677,190v-1V190z M672,189h-1H672z M673,189v-1V189z M673,188h-1H673z
			 M677,188v1v1v-1l-1,1v-1L677,188z M671,188h1H671z M722,188l1,1h-1h1h-1V188z M723,188v-1V188z M673,187v1l-1-1H673z M715,187
			l3,1l1,2l2,1l1,1h-1h-1v-1h-1h1l-1-1l-1-1v1l-1-2l-1-1H715z M677,185v1v1l1-1l-1,2h1v1h-1l-1-1h1h-1L677,185z M670,185h1H670z
			 M709,184v1l-1-1H709z M687,181h-1H687z M677,180v1v1h-1l-1-1v-1H677z M680,180h1H680z M676,178l1,1h-1V178z M706,176v1l1,1l-1-1
			V176z M702,176h1H702z M700,173h-1H700z M676,173h-1H676z M676,172h1v1v1v1h-1l-1-1l1-1V172z M693,171v1V171z M696,171v1h-1v-1
			H696z M694,171v1V171z M695,171h1H695v-1V171z M678,170h1H678z M675,170l1,1v1h-2v-1v-1H675z M679,170h1H679z M674,169h1l-1,1V169
			z M650,167v1V167z M655,160h1l-1,1l-1-1H655z M690,155v1V155z M690,155v1V155z M678,153v1V153z M679,152v1h-1L679,152z M690,151v1
			h-1L690,151z M689,151v-1V151z M694,147h-1H694z M694,145h1H694z M695,145h-1H695z M693,144v1l-1-1H693z M693,144h-1H693z
			 M693,143l1,1h-1V143z M683,142h1v1L683,142z M688,142v1l2-1l-1,2l-1,1v1l-2,2l-1,2h1v1l1-1l1,1h1v1v1v1h-1l1,1v3v1l-1,1l1,1h-1
			l-1,1v2h-2l-1,2l-3,1v1v1l1,1h-1h1h1v1l1,1l2-1v-1h1v-2v-1l1-2h1h3l1-1v-1l-1-1h-1h-1l1-1l2-2l3-1v-1l1-1h2l1-1h1h1h1h1v1h-1v1
			l1,2v2v1l-1,1v3h-1l-2,2h-1l-1,1h-2l-1,1v1l-1-1v1h-1v1l1,1h1v1l3,1l1,1h1h1l2,1v1v2v1l3,1l2,2l-1-1h-1l-5-2h-1l-2-1h-1h-2l-1-1
			h-2v-1h-1h-1h-2h-1v1v1v1l-1-1v1v1h1v4h-1v2l2,2v4l2,3l3,4v2l4,3l1,1l-1-1l-1,1l-1-1h-1l-1-1h1h1l-2-1h1h-1h1h-1l-3-1l-1-1l-3-6
			l-3-1l-1-1v-1v-1v-2v-2l1-2h-1v-1v-1l1-3h-1l-1-1l-1-1v-2l-1-1v-3l1-1l1-1v-1h-1h-1l-1-1v-1v-1v-1h-1h-1v-1l1-1l-1-1v-1l2-2v-1
			l1-1v-1v-1h-1l1-1v-2h1l-1,1l1-1l-1-1h1v-1l1-1v-1h1v-1l1-1l2-3L688,142z M684,140v1h1l-1,1v-1V140z M692,138l1,1l-1,1h1h-1l-1-1
			L692,138z M701,133v1h1v1l1,1v1l-1,2v1v2l-1,1v1h-1l-1,1h-2l-2,1l-1,1l1-2l-1-1v-3l-1-1l2-1v-1v-1v-1h1l1-1l1-1h2L701,133z" style="fill: rgb(250, 171, 24);"></path>
		<path id="ID21" d="M699,363v-1V363z M699,362v1V362z M750,361h-1H750z M693,360l1,1h-2h-2l1-1h1H693z M704,360v-1
			V360z M697,359v1V359z M707,359h2l1,1v1l-1-1h-1v1v-1h-2L707,359z M703,359h1H703z M705,359v1V359z M682,359h1v1h-1h-2L682,359z
			 M703,358v1V358z M684,358h3h1h3v1h-1v2h-1h-1v-1h-2l-1-1L684,358z M729,357v1h-1l-1,2v-2L729,357z M752,357l1,1v1l1-1h1l-1,1
			l-3,1h-1l-1,1l-1,1l-1,1h-1l1-2l2-1h1v-1h-1l1-1h1L752,357z M756,356v1h-1L756,356z M757,356v1V356z M757,355h-1H757z M641,355
			l1,1v1L641,355z M720,352l1,1v1h-1V352z M724,351h3v1v1h1l-2,3l-1,1l-1-1l-2-3v-1L724,351z M732,350v1V350h-1H732z M754,350h-1
			H754z M750,350v1V350z M751,350h1H751z M753,349v1V349z M730,349h1v1h-1V349z M645,348h1l-1,1V348z M753,348h1l-1,1h-1h1h-1v1h-1
			v-1l1-1H753z M660,346v1h1l1,1h2v1l1,1h-1h-3l-2,1l-1,1l-1,3l-1-1h-1h-1h-3l-1-1h-2l-1,1h-1l-2,1h-1v1v-2v-2l1-1v-1h1l1-2h1l1,1
			l3,1l1-1h2l1-1v-1l1,1l1-1l2-1H660z M680,346l1,1h-1V346z M679,346h1H679z M679,345v1V345z M724,345v1h1h-1h-1L724,345z M679,345
			v1V345z M755,345h-1H755z M754,345v1V345z M751,345h1H751z M748,345h1h1h1v1h-1h1h-1h-1h-1V345z M676,345h1h1v1l-1,1h-1v1h-1v-1h1
			l-1-2H676z M748,344h-1l1,1l-1-1H748z M756,343h-1H756z M755,343l-1,1l-1,1v-1l-1,1h1l-1-1v1h-1v-2H755z M758,342v1V342z M700,342
			h1H700z M757,341h1l-1,1h-1v-1H757z M700,340h1l-1,1V340z M760,339v1h-1L760,339z M759,339h1H759z M761,338v1V338z M765,337v1V337
			h1v1l1,1h-1h-1l-1,1l1,1v1v1h1l-1,1v1l-1,3h-1v2h-2v1h-1l-1,2h-1v1h1h-1v1l-1,1v-1h1l-1-1l-1,1h-3l1-2h-1v-1h1v-1v-1h-1h1l-1-1h1
			h1h1v1v-1h1l-1,1v-1h-1l-1-1h1v-1l1-1v-2l2-1v1l1-1v-1l1-1l1,1l-1-1l1-1v-1h1v-1v-1h1h1H765z M770,336l2,3l-1,1l-1-1v-1h-1h-1h-1
			h-1v-1h1L770,336z M761,336v1h-1v-1H761z M760,336h1H760z M824,336h1H824z M701,336h1l1,1h-1l1,1l-1,1l-2-2L701,336z M828,334v1
			V334z M772,334l-1,1l-1,1v-1L772,334z M713,333v1h-1L713,333z M824,333h1H824z M825,332v1V332z M761,332h1l-1,1V332z M830,332h-1
			h-1v-1v1l1-1v1l1-1V332z M828,331l-2,1l1-1v1L828,331z M817,331h1H817z M762,330v1V330z M823,330h-1H823z M825,329l-1,1v-1H825z
			 M823,328v1V328z M721,328v1h-1v-1H721z M824,328l1,1h-1V328z M763,327l1,1v1l-1-1v1h1l-1,1h-1v-1L763,327z M824,327l1,1h-1V327z
			 M830,326v1V326z M826,326v1V326z M828,325l2,1l-1,1v1v1v-1h-1l1,1l-1,1l-1-1v-1h1v-2V325z M826,325h-1H826z M826,325h-1H826v-1
			V325z M830,325v-1V325z M818,325v-1h1L818,325z M826,324v1h-1h1V324z M826,324v-1V324z M831,323l1,1l-1,1h-1v-1L831,323z M826,324
			l-1,1l1-2V324z M818,323h-1H818z M827,323h-1H827z M827,323v1h-1v-1H827z M828,323h1v1v-1l1,1l-1,1h-1v-1h-1v-1H828z M824,322h-1
			H824z M821,322v-1V322z M821,322v-1h1L821,322z M821,322v-1V322z M830,321v1V321z M830,321v1h-1v-1H830z M820,320v1V320z M731,320
			h-1H731z M831,320l-1,1v-1H831z M824,320v-1V320z M824,320v-1V320z M821,320v1h-1v-1l1-1V320z M820,320v-1V320z M832,319v1v1v-1
			V319l1,1l-2,3v-1l-1-1l1-1v1h1l-1-1L832,319z M820,319h1H820z M823,319l1,1h1v1h1v2l-1,1v-1v1l1-1l-1,2v-1h-1v-1v-1v1v-1l-1,1v-1
			h-1h-1l1-1h-1l1-1L823,319z M823,319h-1H823z M822,319h1H822z M822,318v1V318z M823,318v1V318z M821,318v1V318z M821,318h1v1
			L821,318z M823,318v1l-1-1H823z M818,317v1V317z M832,317v1V317z M816,317l1,1h1l1,1h1l-1,1l1-1v1v1h1v1h1l1,1v-1l1,2v1v1l1-1v1
			h-1v1l-1,1v-1h-1h1v1l-1,1v1h-1v1v-1h1l-1,1l-3,1v1h-1v-1v-1h1h-1h1h-1h-1h-1v-1l1-2v-4v-1h1h1l-1,2l1-1v1h1v1v1h1h-1v-1v-1h-1
			l1-1h-1v-1v-1l-1,1l-1-1l1-2l-1-2h1h-1V317z M832,316v1V316z M820,316h-1H820z M782,313v1V313z M817,313v1h2v1h1h-1v1l1,1l1,1h-1
			h1v1l1-1v1h1l-2,1v-1h-1l-1-1l-1-1v1l-1-1l1-1h-1h-1v-1v-1L817,313z M782,313v1h-1v-1l1,1V313z M828,313v-1V313z M828,313v-1V313z
			 M832,313v-1V313z M828,312h-1H828z M825,312h1v1h-1h1v-1h2l-1,1h1l1,1h-1h1v1v-1h1v1v1h-1v1v-1v1l-1-1l1,1h-1h2v1h-1v1v1h-1h1
			l-1,1h-1l-1-1v1h-1v-1l1-1h-1v1l-1-1v1l-1-1h1h-1v-1h-1h-1v-1h-1v-1h-1l1-1v-1h1h1h1v-1l1-1H825z M817,312h1H817z M829,312v-1V312
			z M827,311v1V311z M830,311v1V311z M782,311v1V311z M783,312v-1V312z M830,311h1l-1,1V311z M820,310h1H820z M783,310h1v1L783,310z
			 M785,310h-1H785z M784,309v1h1h-1V309z M784,309h1l-1,1V309z M830,309h1v1h-1V309z M830,309h-1H830z M821,309h-1H821z M821,309
			v-1V309z M830,308v1V308z M818,308h1v1v1h-1V308z M789,308v1h-1v-1H789z M831,308h-1H831z M828,308h1v1h-1V308h-1H828z M789,308
			h-1H789z M785,308v-1V308z M776,308v-1V308z M771,306v1V306z M793,305v1h-1L793,305z M787,305v1V305z M777,305v1V305z M784,305v1
			V305z M787,305v1h-1h1h1l-1,1l1,1v-1v1v1h1v1l-1,2h-1v-1v1v-1h-1v-1v-1v-1l1,1v1v-2h-1v-1v-1l-1,1v-1v-1l1,1v-1H787z M778,305l1,1
			h-1V305h-1H778z M786,305v-1V305z M786,304v1V304z M787,305v-1V305z M771,304v1V304z M772,304v1V304z M827,304h-1H827z M820,304h1
			v1l-1,1h-1L820,304z M825,304h1l1,1v-1l1,1h1v1v-1l1,1h-1v1v1h-1v-1h-1v1l-1-2h-1v-1V304z M829,304h-1H829z M829,304h-1H829z
			 M824,304h1v1v1h1v1l1,1v-1v1h1h-1l1,1h1l-1,1h2v1h-1h-1l1,1v1l-1-1h-1v-1l-1,1l1-1v-1l-1,2h-1h-1l-1,2h-1h-1h-1l1-2h-1v-1h1v-1h1
			h-1h1v-1h1h-1l-1-1v1v-1h-1h-1l-1-1l1-1l1,1l1,1v-1h1h-1l1-1l1-1v-1v-1L824,304z M787,303l1,1h-1h-1L787,303z M789,303v1v1v2v-1
			l-1,1v-1v1v-1v-2L789,303z M779,303l1,1h-1v1l-1-2H779z M824,303v1V303z M824,303h1H824z M788,303h-1H788z M819,303h1l-1,1V303z
			 M788,303v-1V303z M679,302h-1H679z M828,302h-1H828z M828,302h-1H828z M787,302v-1V302z M825,301h1H825z M824,301v1h-1L824,301z
			 M826,301v1l1-1v1v1l1-1l1,1l-1,1h-1v1v-1h-1h-1h-1l1-1h-1h1v-1v1h-1v-1v-1l1,1v-1l1,1V301z M827,301v-1V301z M828,301h-1l1-1V301
			z M826,301v-1V301z M827,301h-1l1-1V301z M828,300h1H828z M826,300h1H826z M826,300v1V300z M825,300v-1V300z M826,299v1h-1v1h-1
			v-1h1v-1H826z M772,299v1h-1L772,299z M796,299v-1l1,1l-1,1l-1,4v2h-1l-2,2v2v1h-1v1l-1,1v-2h1h-1v-1h1h-1l2-1v-2v-1h1l1-6l1-2h1
			V299z M773,296h-1H773z M772,296v-1h1L772,296z M767,286v1v1l-1-2H767z M724,283h-1H724z M725,282h1v1L725,282z M729,282l1,1h-1
			h-2h1h1V282z M728,282v1V282z M728,282v1V282z M764,281l1,1v1L764,281v-1V281z M763,279l1,1L763,279z M757,273l2,1l1,1h-1l-1-1h-1
			V273z M756,271v2v-1V271z M760,270l1,2v1h-1v-1l-1-1L760,270z M755,270h1H755z M752,270v-1V270z M752,270v-1V270z M750,269v1l-1-1
			H750z M672,268h1l-1,1h-1v-1H672z M665,267v1V267z M752,264h1H752z M705,264h1v1h-1V264z M697,262h-1H697z M749,262h-1H749z
			 M698,261h1l1,1l1,1h-1h-1v1l-1-1l-1,1l1-2h-1L698,261z M701,261l2,1v-1h1v3l-1-1h-1h1l-1,1l-1-1h1l-2-1L701,261z M695,261h1l-1,1
			l1,1v1l-2-1l1,2h-1v1h-1h-1v1h-1v-1l1-1l2-1h-1l-2,1v1h-2v1h-2v-1v-1l1-1l1-1h3l1-2H695z M747,257v1l-1-1H747z M680,256l1,1l1,1
			h-1h-1h-1l-1-1l1-1H680z M679,256h1H679z M647,255v1V255z M684,254v2h-1l-2-1l2-1H684z M685,254h-1H685z M662,252h1l2,1h1v1l2-1
			l1,1l1,1v1v1l-1-1v1v1v-1v1h2h1h1v1v1v3l-1,1v1l-1-1l-2,1l-2,2h-2l-3,1l-1,1l-2-2h-1h-1l-1-1l-1-1v1l-1-1l-1-1h-1l-1-1l-1-1l-1-1
			l-1-1v-1l-1-1v-1v-3l2-1l1,1h1h1v-1h1h1l1-1h6H662z M690,251v-1V251z M687,249v1h-1v-1H687z M687,249h-1H687z M687,249h1h1l-1,2
			h-1h-2h1v-1h1V249z M714,249v-1V249z M710,246h1H710z M721,246l1,1v-1l1,1h1l2,1v1l2-1v1h1l2,1v1l3-1v1l2-1h2l2,1v1l1,1h1l1,1l1,2
			v1v2h3l1,1l-1,1l2,2v1h-1v1v2v1v1h-1v-1h-1l-3-1l-1-1l-2-1l-1-1l-2-1l-4-1l-1-1h-1l-1-2v-1h-1h-1l-2-1l-1,1v-1h-1h-4l1,2v1l-3-1
			h-3l-4-1h-3v-1v1l1-1v-2h-2l-1,1h-1l-2,2v1v1l-2-1l-1,1h-2h-1v-1l-1-2l-1-2h-1h-1h-1v-1h1v-1v-1h-1l-1,1l-1,2v3l-1,1h-1v1v2h-1
			l-1-1l1-3v-1l-1-1v-1l-1-1h2l1-1l1-1h2v-1v-1h-1l1-1h1h-1l1-1h2h2h1l1-1h1l1,1l2-1l1,1l1-1l2,1l3-1l2-1v2v1v-1v1l1,1l1-1l1,1l-1-1
			h1v1v-1l3-1v-2h2h1H721z M710,245v1V245z" style="fill: rgb(153, 0, 0);"></path>
		<path id="ID22" d="M463,377h1H463z M454,377v-1V377z M446,375v-1V375z M444,375v-1V375z M439,374h1H439z M449,372v1
			V372z M497,371h-1H497z M437,371h-1H437z M439,371v-1V371z M437,370v1V370z M455,370h-1H455z M506,369v1V369z M506,370v-1V370z
			 M506,369v1h-1L506,369z M484,369h1H484z M479,368l1,1v1v-1h-1h1h-1V368z M478,368h-1H478z M477,367v1V367z M505,367v1V367z
			 M502,367v1V367z M476,367h1H476z M476,367h-1H476z M455,366v1h-1L455,366z M472,366h1H472z M474,365l1,1v1h-1v-1V365z M459,365h1
			H459z M473,365v1v1v-1V365z M508,365v-1V365z M473,364h-1H473z M458,364v1h-2l1-1l1,1V364z M473,364v1V364z M507,364h1v1L507,364
			v1V364z M460,363v1h-1h1V363z M460,363h1H460z M439,363v-1V363z M453,362h1v1L453,362z M453,361v1V361z M446,360l6,1l2,2l-1,2
			l-1,1h1l-1,1l-1,1l-1,3l-1,1h-1l1,1v-1v1h1v1v-1v1l1-1l-1,1l-1,1v-1v1v-1v1h-1v-2h-1v1v1l-1,1v-1v-1v1v-1v1l-1-1v1l-1-1v1v-1l-1,1
			v-1v1v-1v1l-1-1h-2h-1l1-1l-1,1l-2-1h-1h-1v-2h1l1,1v-1h1h1l1,1v-1v-2v-2v-1h-1v-2h2v-1h1l1-1l1-1L446,360z M471,358h2l1,1l-2,1
			l-1,2l-1,2l-1-1l1-2h-1v-2L471,358z M468,358l-1,1L468,358z M502,358h1l1,1l-1,1v1h-1l-1-1v-1L502,358z M475,357v1V357z M472,365
			h1l-1,2l2,1v-1h1l-1,1h1v1h1h-1v1l1,1l1-1h1v1l1-1v1l1-1l1-1h1h1l1,1l1-1h1v-1h-1v-1h-1l-1-1h-1v-1h-2l-3-2h-1l-1-2l-1-1v-2l1,1
			v-1h1h1l2-1v1l1-1l1,1l1-1l1,1l1,2l1,1v1l1,1v-1v1h1h1v-1l1-1l1-1l4,1v2h1l-1,1h1h-1v1v1v1v-1h1v-1v-1l1-2l1-1l4,1v1v1l1,1v1l-1,1
			h1h-1v1h1h-1v-1l1,1v1h1h1l-1-1h1v-1h1l-1,1h1v1h-1h1l-1,1h1h-1l1,1h-1h-1h-1h-2l-1-1h-1h1l-1,1l-1-1h-1v1v-1l-1,1v1l1-1h3v1h1v1
			h-1h-1l-2-1h-1l-2,1l-2,1h-1h-1l-1-1v-1l1-1v-1v-1v-1h-1h1h-1h1l-1,1l1,1h-1l-1,1h-1v1l-2,1l-1,1h-1v-1h-2v1h-1l-1,1h-1l-1-1l-1,1
			h-1l-3,2l-4,1v-1l-1,1l-3-1l-1,1l-2,1l-2-1h-1l-1-1h-1l-1-1h-1l1-1v-1v-1l1-1v1v-1v-1h-1h1v-1l-1-1l1-1l1-1v-1v1l2-1l1-1v1l1-1
			l1-1l1-1h1l1,1l3,1l1-1h1h2v1v1h1l-1-2h1V365z M469,346v1h-1L469,346z M478,345v1V345z M480,345v1V345z M465,345h1l-1,1V345z
			 M465,345v1V345z M468,345h1l-1,1V345z M469,344v1V344z M477,344h1H477h1H477z M476,343v1V343z M476,342v1V342z M470,342v-1V342z
			 M482,341h1H482z M484,338v1V338z M484,338v1V338z M489,338h-1v1v-1H489z M484,336h-1H484z M503,332h-1H503z M504,332v-1V332z
			 M504,331v1V331z M504,331v1V331z M503,331h1l-1,1V331z M501,331v-1V331z M504,330h1H504z M485,328h1H485z M500,327h-1H500z
			 M498,325v1l-1-1H498z" style="fill: rgb(250, 171, 24);"></path>
		<path id="ID23" d="M582,418v1l-1-1H582z M584,417h-1H584z M584,417h1H584z M548,415h1H548z M577,414l1,1h-1V414z
			 M580,414h-1H580z M583,413h1H583z M555,410h1l-1,1h-1L555,410z M593,410h-1l1-1V410z M593,407v1h-1h1l-1,1h1v-1h1l-2,1v1l1,1v1
			h-2v1h-1l-1,1h1l-1,1h-1h-1l-1,1h-2h-1l1,1h-1h-1l-1,1v-1v-1l-1-1v-1h1l2-1h2l2-2h1l1-1h1h1h-1h-1l1-1l2-1v-1H593z M562,406l2,1
			l-1,2l-2,2h-1l-1-1l-1,1l-1-1l3-2v-1L562,406z M524,404v1V404z M526,404h-1H526z M593,403v-1l1,1H593z M594,400v1h1l-1,1h-1v1v1v1
			h-1v-1l-1,1v-2l1-1l1-2H594z M596,400v-1V400z M521,382l3,4l1,1l1-1v1l1,3h1v1l1-1h1l2-1v2h1l1,1l2,3l2,1l1,2l1,1l-1,1v-1v1l-1,1
			l-1,1h-1h-1v1h-2h-1l-1,1l-2-1h-1h-1h-1v-1l-1,1l-1-2l-1-1h-1v-1v-1h-1v-1h-1h-1v-1h-2v-1l-2-1v-1h-1h-1l-1-1v1l-1-1h-1l-1,1l-1-1
			v1l-1-1h-2l-3-1l-1-1l-2-2l1-1l1-1l1-1h1l2-1l1,1l1-1l2,1l2-1h1h1h1l1,1h3l2-2L521,382z M625,376v1v1h1l1-1h1v-1l2,1v1v1v1h-1
			l-1,1l-1-1h-1v1v2h1v1l1,1v1l-1,1l-1,1v2l-1,1l-2,1l-2,3l-2,1l-2,2l-1,2l-2,1h-3h-1h-1h-1h1v-1l-1,1h-1v1l-1,1h-1l-1,1l-2,1h-1h-1
			h-1h-1h-1h-1h-2v-1l1-1v-1l1-1h1h1l1-1h1v-2h-1h-1h-1l-1-2l1-1h1v-1v-1l1-1l-1-2l2-2h1v-1h1v-1h1v-1h1l1-1h1l1,1h1h1l1-1l1,1v1v1
			h2v-1v-1v-1l1-1h1v-1v-1v-1h1h2l1-1l1-1l2-1h1l1-1H625z M528,374v1l-1-1H528z M554,373v1h-1L554,373z M517,372h1l-1,1V372z
			 M515,372v1l-1-1H515z M517,369v1V369z M513,369h1H513v1h-1v-1H513z M512,368v1V368z M514,368h1v1v1l1-1h-1h1v-1h2v1h-1v1h-1l-1,1
			h1v1h-1h-1v-1v-1h1v-1v1h-1v-1V368z M518,368h-1H518z M515,368h1H515z M515,368h1H515z M517,368v-1V368z M516,367v1V367z M514,367
			v-1V367z M517,366h1l-1,1V366z M519,365v1V365z M518,365l1,1L518,365z M611,365v1V365z M573,365h-1H573z M522,365v-1V365z
			 M571,364l1,1v1h-1v-1V364z M511,364v2v-1l1,1v-1v1l1-1l-1,1h1v1v-1l-1,1l1,1h-1v-1l-1,1h-1l1,1v-1v1h-1v1h1l-1,1h1h-1h-1v-1l1-1
			l-1-1v1v-1v-1h1v-1v-1L511,364z M603,364v1V364z M587,364l1,1l-2,1l-1-1l-1,1l-1,2h-1v-1l1-1v-1h1h1L587,364z M574,364v1V364z
			 M523,364v-1V364z M519,363v1h-1L519,363z M602,363v1h-1v-1H602z M523,363h-1H523z M604,363h-1H604z M570,363h-1H570z M525,362v1
			h-1L525,362z M557,361l1,1v1h-1v-1V361z M613,361v1h-1L613,361z M591,361h1H591z M589,360h1l1,1v1v1v1h-2l-1-1l-2,1h-2v-1l1-1l2-2
			h1H589z M611,359h1v1v1v1h-1l-1,1v1v1l-1,1l-1,1h-2l1-1l-1-2h-1l-1,1h-1l1-1l1-1l1-1h1v1h1h-1l2-1v-1l1-1L611,359z M601,359l1,1h1
			l1,1h-2h-1h-1l-2,3h-1l-1,1l1,2h-1h-1v-1l-1,1h-1v1l-2-2l-1,1h-1v-1l2-1v-1l2-1l1-1l-1-1l-1,1v-1h1h1l1-1h1l-1,3h1l1-1h-1v-1h1v1
			l1-1l-1-1h1v1h1v-1L601,359z M617,358h1v1h1l2-1l2,1h1l1-1l1,1l2-1l1,2v1v1l-2,1h-3l-2,1h-3h-1l-1,1l-1-1l-2,1h-1l-1-1l2-2l1-1h1
			l1-1h-1l-2,1v-1l1-2H617z M582,357l2,1v1v1v1h1v1l-1,1l-1-1l-1,1v1v1l-2-1v1l1,2v1h-1h-1v1l-1-1l-2,1h-1v1l-2,1h-2h-1h-1h-3h-1
			l-1,1l-2,1h-1l-2,1l-2-1v1h-1v-1l-1-1h-1h-3h-1v2h-1h-1h-2l-3,2l-2-1l-1-1l-1-1h-1v1h-3l-1-1h-4h-2h-2l-1-1h-1h1h-1h1h-2l-2,1h-1
			v1l-1-1l1-1h-1h-1v-1v-3l1-2v-1v-1v1h1h-1h1h1v-1l1,1v-1v-1h1v1v-1v1l1-1l-1,1h1v1v-1v-1h1l1-1h1v-1l3,1v-1l1-1l1,2l1-1l1,1v-1h2
			v1h1v1l2-1l1,1h1h1l1,1v-1v1h3l2,1h1l1,2h1v1l2-1v1l1-1h1v-1l1-1v1h1h1h1h1v-1l1,1h1l1-1h1v1h1v1l1-1l1,1l2,2h1l1-1h2l1-1v-1v-1h1
			v-1h1h1l2-1h1v-1h2v-1l1-1l-1-1h-1l-1,1h-1l1-2l1-1H582z M597,351h-1H597z" style="fill: rgb(153, 0, 0);"></path>
		<path id="ID24" d="M917,362v1V362z M908,362l-1,1l-1,1h-2h-1h1v-1h3L908,362z M917,362h1l-1,1V362z M915,361h1H915
			z M915,360h1v1h-1V360z M913,358v1V358z M914,358l1,1v1v1l1,1v1h-4h-3v-1l2-2v-1h2L914,358z M940,355v1V355z M916,353h1H916z
			 M911,342h2l1,1l1,1l2,2l-1-1v1h4l-1,1v2l-1,1v2l-2,1v2v1v1h-2v1l-3,1l-1,2l-3,1v1h-1h-1h-1v-1v1l-1,1l-8-1l-4,1l-1,1v-1l1-5l1-2
			l1-1v-1l2-4l2-1v-1l1-2l1-1v1v-1l2-1l2-2h3L911,342z M930,340v-1V340z M921,339h1H921z M932,339v1l-1-1H932z M918,339h1H918l-1-1
			L918,339z M930,338v1V338z M934,339v-1V339z M931,338h-1H931z M922,338h1H922z M914,338h-1v-1L914,338z M913,338h-1v-1h1V338z
			 M934,337v-1V337z M916,331l2,1l3,2h1h1v1h2l1,2l-1,1l1,1h1h-1h-1h-1v-1l-1-1l-1,1v1h-1h-2l-2-1h-2l-2-1l-3-2l-1-2v-1h1h2h1l1-1
			H916z M914,330v1V330z M910,329h1h2l1,2l-2,1h-1v-1h1v-1l-1,1l-1-1V329z M912,326l2,2v2h1h2v1h-2l-2-2h-2v-2L912,326z M902,307h1
			H902z M904,307h-1H904z M902,307h-1H902z M903,306h1H903z M904,305h1v1h-1l-2,1v-1v-1h1H904z M901,303l1-1l1,1v1h-1h1l-1,1h1h-1v1
			l-1,2l-1-1l-1,1v-1l-1-1v-1l1-1h1v-1l1-1V303z M891,299v-1V299z M894,298l1,1l-1,1h-1h-1l1-1L894,298z M892,298l-1,1v-1H892z
			 M887,296v1V296z M893,295h-1v1h-1l1-1l1-1V295z M889,294v1h-1L889,294z M892,294v1l-1-1H892h-1H892z M889,294h1H889z M890,293v1
			l1-1v1v1h1h-1l-1,2l-2-1v-1h1v1v-1h1v-1v1l-1-1h1V293z M888,293h1H888z M888,292h-1H888z M889,292v1V292h-1H889z M884,291v1V291z
			 M886,291v1h-1v1v1v1l-2-2h1v-1h1v-1H886h-1H886z M874,291v-1V291z M883,290v1V290z M873,291l-1-1h1V291z M875,290v-1V290z
			 M878,289v1h-1h1l-1-1H878z M874,289h-1H874z M873,289h1v1l-1,1l-1-1h1h-1v-1H873z M873,289h1H873z M872,289v1l-1-1H872z M870,289
			h-1l1-1V289z M872,288v1V288z M865,287v-1V287z M862,286v-1V286z M860,285v-1V285z M857,282v1h-1v1l-1-1h1h1h-1L857,282z M847,253
			v-1V253z M847,252h1v1h-1V252z M831,251v1V251z M851,249l-1,1h-1l1-1H851z M850,249h-1H850z M854,248h-1H854z M831,244h1l-1,1V244
			z M862,240h-1H862z M861,234v1V234z M877,234v-1V234z M929,233v-1V233z M928,232h-1H928z M881,229h-1H881z M862,228v1V228z
			 M918,228h1l-1,1V228z M862,228h1v1L862,228h1H862z M864,228h-1H864z M862,227v1V227z M852,228v-1V228z M861,227l1,1v-1v1h-1V227z
			 M863,227v1V227z M881,227l1,1h-1h-1v-1H881z M878,227h1l-1,1V227z M877,226v1l-2-1H877z M880,226h1l-1,1h1h-2v-1H880z M854,225v1
			V225z M882,225l1,1h-1V225z M852,225v1h-1L852,225z M879,225h1l-1,1v1h1v1h-1v-1h-1v-2H879z M852,224h-1H852z M884,223v2h1v1h-1
			h-1v-1h-1l-1-1l2-1H884z M914,223v1V223z M845,221l3,1h1h2h1v1l1-1l4,1l3-1l3,2h1l1-1l3,1h4l2,1l-1,1h-1h-1h-1l-1,1h-1h-1h-1h1v1
			l-1-1h-1v1l-1-1h-1h-2v1v-1l-1,1v-1h-1h-2l-1-1h-1l-1-1h-1h1h-1v-1h-1l1,1l-1-1v1v-1h-1h-1v-1l-1,1v-1h-1h-1h1h-1h-1h-1h1h-1l-1-1
			l-1-1H845z M912,221h1v1h-1V221z M897,221h1v1L897,221z M842,219v1V219z M837,219h1h1h1v1v-1h1h1h-1v1h-2l-1-1v1L837,219z
			 M889,294l-1,1L889,294l-1,1v-1H889h-1v-1h1h1h-1h1v-1h1h-1v1v-1h-1l1-1h-1h1l-1-1h1v-1v1h-1v1h1h-1v-1v1h-1h1h-1h1v1h-1l1,1h-1v1
			v1h-1v-1v1l-1-1v-1l1,1l-1-1h1h1l-1-1h1v-1l-1,1v-1v-1v1v-1v1v1l-1,1l-1,2v-2l1-1v-1v-1v1h-1l-1,1v1h-1h-1l1-1v1v-1h1v-1v-1l1,1
			l-1-1h1v-1v1h-1v-1h-1l1,1v1v1l-2-1v2l-1-1h1h-1l1-2l1,1v-1v1l-1-1v-1v1l-1,1v-1v-1v1h-1h1v1h-1l1,1l-1,1v-1h-1v-1v-1h1h-1h1h-1h1
			v-1h1h-1v1v-1v1v-1v-1h-1h1h-1h1l-1,1l1,1h-1v1v1l-1-1v-1h1h-1v-1h1h-1v-1v1l-1-1v1l1,1h-1h1v1h-1v-1h-1h1h-1l1,1v-1v1h-1l-1-1h1
			v-1h1h-1l-1,1v-1h-1h1h-1l1,1l-1-1h-1l1-1l-1,1v-1v-1v1v1v-1h-1l1,1h-1v-1h1h-1v-1v1v-1h-1h1v1h-1h1h-1h1l-1,2l-1-1v-1v1v-1l-1,1
			v-1l-1,1h1l-2-1h1v-1l-1,1l1-1l-1,1v-1v1l-1-1h-1v-1v1l-1-1l-2-1h1h-1v1l-1-1h-1v-1v1h-2h1v-1l-1,1l1-1v-1v1h-1v-1v1h-1v-1v1l-1-1
			h1l-1-1h1v-1v1h-1h1h-1v1h1h-1h-1l-1-1h-4v-1v1h-1l-6-2l-1,1l1-1h-1v1h-3l-2-1h-1v-1h-1l-1-1h-1h1h1h-1h1h-1l-1-1v1v-1h-1l3-4l5-7
			l-18-6l-4-1l1-2l1-3l3-1v-1v-1l3-3l2-1v1v1v1h1h1v-1v1l1-1v-1h1v2h-1l1,1h-1v1v1v-1v1h-1h1l1,1v1v1h1h1v-1v1v1l1,1h1l1,1l3-1l2,1
			l1-1h1h1l1-1v-1l1-1v-1h2l2-1l-1-1h1v-1v1l1-1l1-1h1v-1h1h-1v-1v-1l1-1h-1h1l1-1v-1h1h1v-1h1l2-2v-1h1l-1-1l1-1l1-1l-1-1l2-2h2h1
			h1v1h1h1v-1l1,1l1-1v1l1-1l-1-1l1,1l-1-1h1v1l1-1l1,1v-2v1v-1h1l1,1v1v-1h1h-1l-1-1h1v1v-1h1h1v1v-1h1v-1v1v-1l1,1l-1-1h1v1h1
			l-1-1h1v1v-1l-1-1h1h-1l-1-1h1v1l1-1l-1,1v-1h-1h1h-1v-1h1h1l-1-1h-1l1-1h-1v-1l1-1l1,1l1,1h1h1h1h-1v-1h-1v-1v-1h-1h2v-1h1v1v-1
			v-1v1h1v1v-1h-1h1l-1-1h1h1v-1l1,1v1v-1v1h1l-1-1v1v-1v-1v1h1h-1h1l-1-1v1v-1h1l2-1v1h1h-1v-1h1l1-1h2v1v1h1h-1h-1h1v1v-1l1,1h-1
			h1v1h-1h1v-1l1,1h2h-2l-1-1v-1l2,1l2,1l3,2l7,1l2,2v-1v1l1,1l1,1h1h2l3,1l2,2l4,2l7,3l1,1l3-1h2h1v-1l1,1v-1v1l1,1h1l1,1h1h1l-1-1
			h2l1,1h1h1h1l2,1v1v1h-1v1h1v-1l1,1v-1l3,1v-1h2v78h-1v1v2l-1,1v1v1l-1,1l-1,1l1,1v1h1l-1,1h1v1h1l1,23v24l-2-1l-6-6l-2-2l-1-2
			l-2-2l-1-1h-1l-1-2l-2-1l-3-3l-1-1l1-1h1l1-1l-1-1v-1v2v1h-1h-1l-1,1l-4-1l-3,1l-1,1l-4,1l-1-1l-1-2l-3,1h-1h1h-1h1h-1l1,1l-2,1
			l-1-1l1,1v2h-1l-1-1h1h-1l-1-2v-1v-1h1h1l-1-1v-1v-1l2-2v-2l1-1v-1l1-1v1v-1v-1l-1-1h-2l-1-3l-1-1l-4-2v-1l2,1l3-1l3,1h3l1-1v-1
			l1,2h1h2v-1l-1,1l-1-1l1-1h2v1v1v1h1h1l1-2h1l-1,1v1h1v1v-1h1v-1h1v-1v-1v-1h1l-1,1v1v1l-1,1h-1v-2h-1h-1v1v1h-1l-1-1v-1l-1-1h-1
			l-1-2h-2v-1h-1l-1-1l-3-2h-1v-1h-1h-1l-1-2l-3-2v-1h-1l-1-1l-3-3v-1l-1-2v-1h1l-2-2h1h-1l-1-3l-1-1l1-1h3h1v1v-1l1,1l-1-1v1v-1h-1
			v-1v-1h-1l1,2h-2h-1h-2v-1v-1l1-1h1l2-1h1h-2h1v-1h-1v-1h1h-1v1h-1h-1l1-1h-1h1h-1l1-1v1v-1v1v-1l-1-1l1-1l-2,1h-1v2l-1-1v-1v1h-1
			l1-1l-1-2h3v-1h1l1-1l-1,1h-1v1h-1v-1l1-1v-1v1l-1,1l-1,1h1h-2v1v1l-1-2h1l1-2h1v-1l1-1h-1v1v1h-1l-1,2h-1v1l1,1v1l-3-3l1-1l1-1h1
			l1-1l-1-1h1v-1v-1l1,1v-1v1l-1-1v1v1h-1v1v1h-1h-1v-1v1l-1,1v-1v1l-1-1v-1h1v-1l1-1h1v1l1-1h-2l-1,1v1h-1v1v1l-2,1h-1l1-1l1-2h1
			l-1-1h1v-1l1-1v1v-1l1,1v-1h1l-1-1l1,1h-1v1l-1-1v1v-1l-1,1v1h-1v1l-1,1l1-1h-1h1h-1v1h-1v-1v-1h1v-1h1v-1h1v-1v1h-1v1l-1-1v1h-1
			h1v-1h1v-1v1v-1h1h-1v1v-1l-1,1v-1v1h-1v-1h1h-1h1h-1v1v-1l-1,1v-1h1h-1h1v-1v1h-1L889,294z M868,216h1H868z M870,215h-1H870z
			 M869,215h1H869z M864,214v1V214z M869,215v-1h1L869,215z M869,214v2l-1-1v1v-1v-1H869z M860,214h-1H860z M866,214h1H866z
			 M862,213l1,1h-1V213z M870,214v-1V214z M865,214l-1-1h1V214z M868,213v1V213z M869,212h-1H869z M833,209v1V209z M833,209h1H833z
			 M834,209l-1,1v-1H834z M832,207l1,1l1,1h-1v1h1v-1v1v2h-2l-1-1l-1-1v-1l1-1h-1h1L832,207z M845,207v1V207z M846,205h-1H846z
			 M846,201v1V201z M843,201v1l1-1v1h1h1h1v1l1-1h1v1h1h1v-1l2,1l1,1l2,1v1h1l-1,1l1-1v1l1,1l1,1v1l2-1h1v1h1l1,1l-2,1l-3,1h-2l-1-1
			h-1h-1v1l-1-1l-2-1h1v-2h-1v-3l-1-1h-1l1-1l-2,2l-2-1l-1-1l-1-1l1,2v-1l1,1v1h-1v-1l-2-2v-1l-1-1H843z M840,196v1V196z" style="fill: rgb(153, 0, 0);"></path>
		<path id="ID25" d="M179,192h-2h1H179z M180,191v-1V191z M180,190l-1,1l-2-1h1H180z M177,189l1,1L177,189z M181,189v-1
			l1,1H181z M180,188h1v1L180,188z M159,184v1V184z M159,184v-1V184z M155,183v1V183z M162,182h-1H162z M165,182l-1,1v-1l2-1v1H165z
			 M167,181h-1H167z M170,180l1-1L170,180z M179,179h1H179z M169,176l-1-1v-1h1V176z M170,174v1l-1-1H170z M172,173v1h1l1,1v1l-1,1
			h-1l-1,1l-1-2v-2l1-1H172z M170,171v2h-1v-1L170,171z M169,171h1H169z M162,167l-1,1h-1v1v-1h1v1h1h1h-1h-1v-1L162,167l1,1h2l1,1
			l2,2v2v1h-1l-1-2l-1-1l-5,1h-2l-2-1l-1-1v-1l1-1l1,1l2-2l1,1v-1H162z M165,166h-1H165z M157,164l1,1l1,1v1l-2,1l-1-2l1-1V164z
			 M162,164h3l2,1l4,4v1l-1,1h-1l-4-3l-2-1l1-1h1h-1h1l-1-1v1l-1-1l1,1h-1v1l-1-1l-2,1v-1l1-1L162,164z M152,158l5,4v1h-1v-1v1h1
			l-1,3v1l1,1h-1l-1,1l-3-2l-1-2l1-2l-1-2v-1v-1L152,158z M147,154l9,2l1,1v1h-1h1v4l-2-2l-2-2h-3l-2-1l-1-2V154z M135,152v-1V152z
			 M134,152v-1V152z M134,151h-1H134z M134,151h-1l1-1V151z M134,150v1V150z M140,144l1,1l1,2v1h-1h1l-1,1v2l-2,2l-4-1l-1-4v-2l1-1
			h1v1l1-1h1v-1h1h-1h1v1v-1h-1h1H140z M118,142h1v1L118,142z M120,141l1,1v2l-1-1v-1V141z M126,140h-1H126z M112,135v3h1v1l1,2l3,2
			l1,1h1l2,1v-1v-2v-1v-1h3h3v2l5,3v1l1,2v2v1l1,2h2l1,1l3-1h1l6,5l3,1v4v1l-1,1l1-1v-1v-1l1,1v2v2l3,2l1,2l2,1l1,1l3-1l2,1h1h1l5,5
			l-4,2l-1,1l-3,1l-3,1v1h-2v-1h-1h-1v1v-1h1h1v1h1l1,1v-1l2-1l2-1l1,1l5-3h1l1-1v-1l3-1h2l4,3v1v1v-1l2,1l1,1l1,3v2h-2h-2l-1,1h1
			h-1v1h-1v-1h-1l1,1h-1l1,1l-2,1v1l2-1l-1,2v1v-1l2-2l2,1h1l2,2h-2l-2,1h-1h1v1l-1,1l-1,1l-1-1l-1,1v1v1l-1,1l1-1v1h-1v1h1h1l1,1
			h-2l-1,1v-1h-5h-2l-2,2l-3,2v1h-1v1h-1l-1,1h-1h-2l-1-2h-1l-2-1v-1h-1l-1,1l-1-1h-1h-1h-1v-1h-1v1h-1v1h-1h-1h-1h-1l-2-1l-1-1
			l-2-1l-2-2l-1-1l-1-1h-1l-2-2h-1v-1h-1l-1-2h1l-1-1l-1-1l-1,1v1l-1-1h-1v-1l-1-1v-1l-1-1l1-1l-1-1l1-1l1,1v-1l1-1l-1-1v-2v-2l-2,1
			l-1,1h-2l-3-1l-1-2h-2v-2l-2-2v-1l1-3l-2-2h-1l1-1v-1h-1v-1h1v-1l-1-1h1h-1v-1h2l-1-2l-1-1v-2h-1v-1h1h3v-1h1h1l-1-1h1v1h1l1-1v-1
			v-2v-1h-1l1-1v-1h-2l-1-1v-2l1-3v-3l-1-3v-2L112,135z" style="fill: rgb(153, 0, 0);"></path>
		<path id="ID26" d="M509,261h-1H509z M509,260v1V260z M510,260v1V260z M509,260v1V260z M499,242v1h-1L499,242z
			 M504,240v-1V240z M508,228v1V228z M513,211h1l-1,3l-2,1h1l-2,1v1h2v1h1v-1h1l1,1h1l-1,1v1l1,1v1h1v1v1v1h2l1,1v1h-1v2l-1,1v1h-1
			h-1l-2,2l-1,3l2,1l1,1l-1,1l1,1v1l1,1v1v1l-1,1h-2h-1h-2l1,1v1v2l1,2l1,2h-2l-1,1h-1l-1,1l1,1v1v1h1v2v1l-1-1h-1h-1l-1-1v1h-1v1
			h-2h-1h-1h-1v1h-1l-2-2v-2v-1l-1-2h1l-1-1v-1h-1v-1h1h1v-1v-1l1-1l-1-2l-2,1v-1v-1v-1v-1l1-1l1,1l3-1v-1h1v-2l2-1v-1v-2v-1v-1v-1
			h1v-1l1-2h-1l2-1h1l1-2l-1-1v-1l-1-1v-1v-1l1-1l-1-3v-1l1-1l-1-1l1-3h1l1-1l1-1v-1l2-3l-1,3h1V211z" style="fill: rgb(153, 0, 0); opacity: 1;"></path>
		<path id="ID27" d="M559,345v-1V345z M559,344v1h-1L559,344z M560,341v1v1h-1h-1v-1L560,341z M545,341l1,1l-1,1
			l-1-1v-1H545z M559,340h-1H559z M539,340h2h2l1,1h-1h-2h-2l-1-1H539z M558,339h1H558z M534,336v1V336z M534,336h1H534z M534,336
			h-1H534z M533,335v1V335z M535,334l1,1l1,1h1v1h-2h-1v-1h-1l1-1V334z M539,330v1l-1,1v-2H539z M531,328v-1V328z M531,326v1V326v-1
			V326z M543,324v1V324z M543,324h-1H543z M546,324h-1H546z M531,323v1V323z M546,323h-1H546z M531,321v-1V321z M531,316v1v1h-1v-1
			v-1H531z M532,308v1l1,1l1,4l-1,1v3v1v1l-1,2l1,1l-1,1l-1-2h1l-1-1h1v-2h-1v-1v-1l1-2h-1v-3v-3L532,308z M513,306h1H513z M509,302
			l1,1h-1V302z M510,302v1V302z M507,302h1l-1,1h1h-1v1l-1-1h1V302v1h1h-1V302z M506,301v1V301z M509,301v1V301z M479,300v1V300z
			 M478,297v1v1v-1V297z M473,296h1l-1,1V296z M507,295l-1,1L507,295z M478,293l1,1h-1V293z M531,293v1l-1-1H531z M506,292h-1H506z
			 M509,290h-1H509z M511,288v-1V288z M507,287v-1V287z M502,286v1V286z M511,286h-1H511z M504,286h-1H504z M512,285h-1H512z
			 M514,279h-1H514z M543,244v-1V244z M512,290l-1-3l1-1l2-3h-1l1-2l-1-1l1-1v-1v-1h-1l1-1l-1,1l1-1v-1v-1v-1v-1v-1h-1v1h1h-1v-2
			l-1-1l-1-3l-1-1l1-1l1-1l-1-2v-1v-2h-1v-1v-1l-1-1l1-1h1l1-1h2l-1-2l-1-2v-2v-1l-1-1h2h1h2l1-1v-1v-1l-1-1v-1l-1-1l1-1l-1-1l-2-1
			l1-3l2-2h1h1h1l2-1l1-1h2v1h2h1l2,1l1-4l2,2v1l2,2l3,2h1h1l3,1l4,2h4l3,3h2l1,1h1l2,4h-1l-2,3l-1,1l-2,1l-3,1l-1,1h-1l-1-2h-1v-1
			v-1l-1-1v-1l-3,1v-1l1,1v-1l1-1h1l-1-1h-1l1-1v-1v1h-1h1h-1v1h-1l1-1h-1v1v-1v1l-1-1h1h-1v1l-1-1h-1h-1l1-1l-1,1h-1h-1l-1,1h-1v1
			l-3,2l-2,1v1h-1h-1l-1,1v1h1v1v2l3,1v1h1l-1,1v3v1l1,2l-1,1l1,1v1l-2,2v2v1v1v1v1l1,1l-1,3h1l-1,1v1l1,2v2l1,1l-1,1v3h-1l-1,1v1v1
			v1v1v1l1,4h1v1l1,2v2l1,1h-2l-1-2h-1v1h-2l-1,1h-2l-2-1l-2,2h-1h1l-2,1h-1h-1l-1-1h1l-1-1h-1v1h-1l1-1l-1-1h-1v1h-1v-1v-1v-1v1v-1
			h-1h1l-1-1l-1-2l2-4v-1v1h1v-1l-1,1l1-1h-1h1v-1v-1l1-1V290h1H512z" style="fill: rgb(250, 171, 24);"></path>
		<path id="ID28" d="M588,262v1v1l-1-1v1l-2-1L588,262z M586,261v1V261z M572,257v-1V257z M572,256v1h-1h1V256z
			 M573,256v1h-1L573,256z M576,253h-1H576z M575,252v1h-1L575,252z M574,252h1H574z M575,252v1V252z M574,252h-1H574z M572,252h-1
			H572z M572,251v1l-1-1H572z M572,251v1V251z M570,251h1H570z M587,234v1V234z M588,234h-1H588z M598,233h1H598z M598,232v1V232z
			 M597,232v1V232z M603,232h-1H603z M604,232h-1H604z M603,231v1V231z M604,231v1V231z M604,231h-1H604z M602,230l1,1v1v-1h-1V230z
			 M600,230h1l-1,1V230z M595,230v-1V230z M595,229l-1,1h1h-1L595,229z M550,229v-1V229z M550,229v-1V229z M553,228v1V228z M598,228
			v1V228z M599,229v-1V229z M550,228v1V228z M594,228l1,1h-1V228z M554,228h-1H554z M588,228h-1H588z M552,228v1V228z M596,228h-1
			H596z M600,228h1H600z M551,228h-1H551z M600,228v1h-1v-1H600z M598,228v1V228z M599,228v-1V228z M598,227l1,1h-1V227z M601,227
			l1,2v1l-1-1v-1h-1h1V227z M599,227v1V227z M551,226v1h-1L551,226z M605,226l1,1L605,226z M550,225h-1H550z M586,225h1v2l-1,1h-1
			l1-1v-1V225z M596,224v1h-1v-1H596z M592,223v1h-1v1h-1l1-1L592,223z M589,222h-1H589z M594,220v1V220z M580,219v1V219z M596,219
			v1v1v1l1-1v1v1l-1,1h-1l-1-1h1l-1-1l1-1h-1v-1l1-1H596z M591,212v1v2l-1-2L591,212z M588,212l1,1l1,1h-1h-1l1,1h-1l1,1v1l1-1v-1h1
			l1-2l1,1h1h1l1,1v1v1l-1,1h-1v2v-1l-1,1l-1-1v1v-1l-1-1l-1-1v1l-1,2v1l1,1h-1v-1l-1,1h-1v-1h-1h1l1-1v-3v-1v-1h-1l-2,3l-1,2h-1v1
			h-1h-1v-1v-1h-1v-1v-1l1-2l1-1v-1h1h1h1l2-1v1L588,212z M591,212l-1,1v-1H591z M532,209h-1v-1v1H532z M586,207v-1V207z M587,206v1
			V206z M559,203v1l-1-1H559z M593,202h-1H593z M581,199h-1H581z M586,199h1H586z M577,198v1V198z M576,198l-1,1v-1H576z M562,198
			v-1V198z M559,197h1H559z M561,197h1v2h-1l-1-1l1,1h-1h-1v-1l-1,1v-1l-1,2h-1v-1h1v-1h1v-1l1,1l-1-1h1H561z M566,196v1V196z
			 M560,197v-1V197z M561,195v1h-1v-1H561z M562,195h1h1h-1h1v1v-1h1v1v1h-1v-1v1h-1h-1h-1v-1L562,195v1V195h1H562z M563,195h-1H563
			z M563,195v-1V195z M569,194l-1,1v-1H569z M566,194v1h1l-1,1h1v1h-1v-1v1h-1v-1v-1v-1H566z M567,194v-1V194z M566,194v-1V194z
			 M565,193l-1,1v-1H565z M568,192l-1,1h1v1h1h-1h1h-1h-1v-1L568,192z M569,192v1h1l1,1v1l1,1l-1-1v-1h-1v-1h-1h-1L569,192z
			 M556,191v1h-1l-1-1H556z M527,167v1V167z M537,167h-1H537z M535,166h1v1L535,166h-1H535z M530,166v1V166z M536,165v1V165z
			 M550,161v1V161z M544,161v-1V161z M541,160h-1l1,1V160h1h1l1,1v-1l1,1l3,1h1h1h1l1-1l1,1h-2h1l-1,1l2,2l1,1h2h1l1-1v1l2-1h1h1
			l1,1v1l1-1h1h1h1l1,1l-3,1h-1l-1,1l-2-1h-1l-2,1l-4,1h-3l-2,1h-1l-1,2l-1,1l2,2h2v1v1h-2h-2v1l-2,1l-1-1h-1h-1h1l-1,1l-1-1h-1v-1
			h-1l-2-1h-4l-1,1h-1l-2,1l-2,4l-1,1l-1,1h1l-1,1v2l-1,1v2l-1,1v2h1v2v1v1v3l2,3l1,1v1l2,2h1l1-1l1,2h1l1,1l1,1v1v1v1l1,1v1l1,1v1
			l1-1h1v-1v1l1-1v1h1h2l1,1l1-1v1h1l1-2l1-3l2-1v-1l1-1h1v-1l1-1l1-1l2-1v-1h1h1l-1,2h1l1,1h1h1l2,1l2-1h2l1-1v-1v-1h1v-1h4h1h1h1
			h1h1l1,1h1l1-1h4l-1-1h-1h-2l-1-1h1v-1h1h1h1h1l1-1h1h2h1h1l3,2h-1h1v1h1h-1l1,1l-1,1h1l-1,1l-1,1l1,1l-1,2h-1h-1v-1h-1l-1-1h-1
			v-1h1v-1l-1-1l-1,1v1h-1v-1v1l-5,1v1l-1,2l-1,1h-1v2h-2v1l-1,1l-1,1l-1,1v1l-1,1h-1h1h-1l-2,1l-1,1v-1l-2,1h-1l-1,1h-1h-1v1l-1-1
			v1v1h-1l-1,2l-1,2h-1h-2v-1h-1v-1h-1h1h-1v-1h-1h-1l-1-1v2h1v-1v1v1h-1l1,1v1l1-1v-1l1,1v1h1h-1h1v1h1v2l1,1h2v-1l1,1l1,2h1l1,2
			l2,3l1,2v1v1h1v1h1l1,1v1h1h1l1,1v1l-1,1l2,1v2l1-1l1,1h1h-1l-1,1v1h-1v-1h-1l-1-2h-1v-2h-2v-1h-3h-1l-4-1l-1-1h-1l1-1l1-2h1v-1
			l-2-3h-1l-1-1h-2l-3-3h-4l-4-2l-3-1h-1h-1l-3-2l-2-2v-1l-2-2l-1,4l-2-1h-1h-2v-1h-2l-1,1l-2,1h-1v-1l1-1v-2h1v-1l-1-1h-2v-1v-1v-1
			h-1v-1l-1-1v-1l1-1h-1l-1-1h-1v1h-1l-1-1h-1v-1l2-1h-1h2v-1v-1l1-2h-1v-2v-3l1-1l1-1v-1l1-1v-1l1,1l1,4l1,1v-1v-1v-1v-1l-1-1l-1-4
			v-2l1-4v-1h-2l-1-1l-1-2h1h1v1l1,1h1h1v-2v-2l-2-2l1-1h2v-1h-1v-1l1-1l-1-1l1-1h2l1-1l-1-3l1-1l1-1v1l2-1l1-1v-3l1-1h1v3v1l1-1v1
			l2,1v-1h1v1h1v-1h1h-1v-1l1-1v-1h1v-1l1,1v-1l2-1l-1-1v-1h1v-1v-2v-1h1H541z M540,159v1V159z" style="fill: rgb(153, 0, 0);"></path>
		<path id="ID29" d="M578,317l1,1h-1l-1-1H578z M605,311h1l1,2v1h-1v-1h-1v-1V311z M603,309h1v1L603,309z M604,309h-1
			v-1L604,309z M605,308l-1,1l-1-1l1-1L605,308z M616,307h-1H616z M574,305l1,1v1h-2L574,305z M602,305h-1H602z M602,304h-1H602z
			 M602,304h1v1h-1V304z M602,304h1H602z M574,303v1l-1-1H574z M565,303h-1h-1H565z M565,302v1V302z M599,302h1l2,2h-1v1L599,302z
			 M601,302h-1H601z M577,301v1V301z M597,301h1H597z M598,300v1V300z M559,300h-1H559z M594,299h1l1,1h-2V299z M612,299h1v1h-1V299
			z M611,298l1,1L611,298z M565,299v-1V299z M597,298l1,1v1h-1h-1l-1-1v-1H597z M578,298v1v-2V298z M579,297v-1V297z M560,296v-1
			V296z M561,294l1,1v-1h1v1v1h1v-1l1,1v1h-1l1,1v1l-1,1h1v2h-1h-1v1l-1-2l-1-1l-1-1l-1-1l1-1v-1v-1l1,1l-1-1v-1l1,1l-1-1H561z
			 M571,291h-1H571z M562,291v-1V291z M571,291v-1V291z M565,290h-1H565z M568,289h-1H568z M567,289h-1H567z M567,289v-1V289z
			 M586,288h-1H586z M586,288h1v1h-1h-1L586,288z M585,288h1H585z M587,287v1h1h-1V287z M585,287v1V287z M553,286v1V286z M570,286h1
			H570z M571,285v1l-1,1l1-1V285z M571,284l-1,1L571,284z M578,284l1,1v1v2v1v1h1h-1v2h-1l-1,2l-1,2l1,1l-1,1h1v2h-1v1h-1v1h-1v-1
			l1-2h-1l1-1l-1,1v1h-1v1h-1v-2h1h-1l-1,1h1l-1,1h-2v-2l1-2v-1v-1l2-1l-1-3l-1-2l1-2h3l1-1l1-1h1L578,284z M570,284v1V284z
			 M578,284h1H578z M570,283v1V283z M570,284v-1h1L570,284z M578,283v1V283z M579,282v1h-1v-1H579z M583,281v-1V281z M586,279v1h-1
			l1,1h1v1l2,2l-1,1v1h1v-1v1v2v1v1l-1-1v-1l-1-1h1l-1-1v2h-1v-1v1l-1-1v1l-1,1l1,1l-1,1l-1,2h1v1v1l-1,1v1l1-1l1-1l1,1h1l-1,1h1
			l1,1h1v1l-2,2l-2,1l-1-1l-1,1h-1l-1,1h1v1l-2,3h-1l1-1h-1v1l-1-1h1l-1-1v2h-1l-1-1l-1-3l1-1h1v-1h-1l1-1v-1h1l1-2v1h1l1-1l-1-1
			l-1,1v-1l1-1v-1l-1,1l1-2h-1h1l1-1v-1v-1h-1l1-1v-1v-2v-2l1-3l2-1L586,279z M553,276h-1H553z M583,275h-1H583z M582,274v1V274z
			 M578,274h-1H578z M552,273l-1,1h1v1h-1v-1v-1H552z M550,273h1v1L550,273z M580,271h-1H580z M585,271l1,1h2h1l1,1v1l-3,3h-1l-2-1
			l-1-2v-1h1L585,271z M548,270h-1H548z M570,262h1v1h-1h-1L570,262z M572,259v1h1v1h-1v-1V259z M545,247l1,1v1v1h1v1l2,1l2-1l2-1
			l2-1l1-1l2,1l4,1h1h3v1h2v2h1l1,2h1h-1v1l-1,1h1v1h1v1v-1l1,1v1h-1v-1h-1v-1v1l-1-1v1l1,1v1h-1v-1v1v1v-1v1h-1v1l1,2h1l1,1h1h1v2
			h1l1,1h1h1v1v1h-1h-1h1l1,1h1l-1,1v1l1,1v-1l2,1l1-1v1v-1h-1v-1h-1h2l1,1v2v2v1v1h-1v1l-3-3l-1,1h1v1l1,1v1h-1v-1v1l-1-1l-1-1h-1
			v1l-1-1h1h-1h1h-1l1,1h-1h-1l-1-1l-1,1l-2,1h-1v-1v1h-1v1h-1v-1v1h-1l-1,2v2l2,2h-1l-1,1h-1h-2l-1-1h-3v-1h-1h-1l-2-1v-1h-1v-2
			l2-4v-3h1v-2h1l-1-2l-2-1h-1l-1-1v1l-1-1l-1-2l-1,1v-1v-1h-2v-1l-2-2h-1l-1-1l-2-2v-2l1-2l1-1v-1h1v-1h1v-2v-1v-1h1l-1-1h1v-1
			l-1-1l-1-1v1l-1-1l2-1h1V247z" style="fill: rgb(250, 171, 24);"></path>
		<path id="ID30" d="M620,171h-1H620z M621,170h-1H621z M632,156v3h-1h-1v-1h1L632,156z M621,154l1,1L621,154z
			 M627,152v1h-1L627,152z M621,152v-1V152z M626,151l1,1l-1,1h1h1h1h1l-1,1l1,1l1,1v1l-1,1h-1v1l-1,1l-1,4l-3,3v1h-2l-1,1h-1v1h1
			l-2,1l-1,1v1v1l-1-1v2v1h-1v1v1h-1v1l-1-1l-1,1h-1h-1l-1,1h-3h-1h-1v1h-2h-1h-1h-2v1h-1l-2-1l-1,1l-1-1l1-2v-3v-1l-3-1l-1-1h-1
			l-1-2l-2-2h1h1l-1-1h1h1v1h2h1h1h1h2l2,1h1v1v-1l1,1v-1h1h1l1,1v-1l3-1h1l1-2h2l2-3h-1h1l1-1h2h1l1-1l-1-1h-1v-1l2-2l1,1l2-1l2-1
			v-1h-1v-1h1l1-1l1-1v-1h1V151z M621,152v-1V152z M621,151l1,2h-1v-1V151z M629,149l1,1v1h-1l1,1h-1l-1-2h1V149z M628,149v1h-1v-1
			H628z M635,143v1h-1l-1,1v-1h1h-1h1L635,143z M634,139v1h-1L634,139z M632,139h1H632z M634,138l1,1v-1l1,1l-1,1l-1-1V138z
			 M636,132v1V132z M636,132v1h-1h1l-1-1H636z M636,132h-1H636z M630,131h-1H630z M635,129l1,1l-2,1v1l1,1h-1v-2v-1L635,129z
			 M636,127v-1V127z M637,124h-1H637z M636,122h-1H636z M637,121v1V121v1V121z M636,120v1l-1-1H636z M641,115v1V115z M640,114h-1
			H640z M635,110h2l1,2l1,1h-1v1h1l1,1h-1l1-1v1v1l-1,2v-1v1h-1v-1v-1l-1,1v-1h-1v-2h1l-1-1h1l-2-1l-1-1L635,110z M638,109v1V109z
			 M639,109h-1H639z M663,108h1v1l1,1h-1h-1v-1l-1-1H663z M660,105l2,1v1h-1l1,1h-1v-1v-1h-1V105v-1V105z M641,95h-1H641z M663,93v1
			l1-1v1h1v2v1l1,2h-1v1l-1,1v1v2l-1,1l-1-1l-1,1v-1l1-2l1-1v-1v-1h-1v-1l-1-1l1-1v-1v-1L663,93z M671,92h-1H671z M635,90v1V90z
			 M669,89h1H669z M671,89h-1l1-1V89z" style="fill: rgb(153, 0, 0);"></path>
		<path id="ID31" d="M127,271v1h-1L127,271z M118,260l1,1h-1V260z M114,256v1V256z M112,256v1V256z M116,256v-1V256z
			 M113,255h1H113z M114,255h1H114z M115,254l1,1L115,254z M109,252h-1H109z M109,248h-1H109z M108,247v1V247z M109,247h-1H109z
			 M108,247h1H108z M110,247h1H110z M110,246v1h1h-1l2,1l2,2v1h1h-1v1v-1h1l-1,2h1v1h-2h-1h1v1v-1v1l2,2v1h-1v-1h-1v-1h-1v-1h1h-1
			v-1l-1-2h-1v-1l-1-1v-1v-3H110z M110,246h-1H110z M105,246v-1V246z M104,245h1l-1,1V245z M105,240l1,2l2,1l1,2v1l-1,1h-1h-1l-1,1
			v-1v-1h-1h1v-1v-1l-1-1l1-1h-1v-1v-1H105z M99,237h1l-1,1V237z M97,230v1h2v2l1,2v1h1l1,1v1l-1-1h-1h-1l-1-1h-1v-1v1l-1-1h1h-1v-1
			v1l-1-2h1l-1-2h1L97,230z M96,230h-1H96z M96,229v1V229z M116,216h1H116z M115,216v-1V216z M114,213h-1H114z M113,214v-1V214z
			 M112,211v1V211z M112,211h1H112z M108,210h1H108z M109,209v-1V209z M82,207v1V207v1l1-1v1v1h-1h1v1l1,1v1l1,1v1h1l-1,1h1v1v1h1
			l1,2l-1-1h-1l2,2v-1v1v1h1l1,1v1v1v1l-1-1v-2h-1l1,1v1v1h-2v1h-1l-5-3v-1h-1l1-1l-1-1l-4-6v-1l1-2v-3h1h1h1L82,207z M107,202v-1
			V202z M100,190v-1V190z M92,185h-1H92z M90,183v1V183z M103,170h1l2,1l3,1l1,1v1l-1,1v1v1l2,2v2h2l1,2l4,1h1l1-1l2-1v2v2l1,1l-1,1
			v1l-1-1l-1,1l1,1l-1,1l1,1v1l1,1v1h1l1,1v-1l1-1l1,1l1,1h-1l1,2h1v1h1l2,2h1l1,1l1,1l2,2l2,1l1,1l2,1h2v3h1l-1,2l-3,1v1l1,1l-1,1
			l1,1l-1,1l-3,2l-1,2h-1h-1h-3l-1,1v-1h-1h-1l1,5l1,1l1,1v1l1,2v2l-1,2l-2,1l-3,2v-1l-3-3v-1l-1-2l1-1v-1v-3l-4-5l-1-1v-2v-1l-1-1
			l-1-1h1v-1l-1-1h-1l-1-1v1l-1-1h1v-1h-1v-1h-1v-1h1l-1-1h1v-1v1v-1h-1v-1v-1l-1-2l-3-4l-1-2l-4-3v-1l-2-1v-2l-1-1h-1l1-1l-1-1
			l-2-3v1l-3-2l1,1v-1h-3v-1l-1-1h-1l-1,1l-1-1h-1l1-1l1-1h1h1l1-3l2-1h1h1h1l1,1l1,1l1-1h1h2l1-1v-1l-1-1v-1h-1l-1-1l1-2l-1-2h1
			L103,170z" style="fill: rgb(250, 171, 24);"></path>
		<path id="ID32" d="M234,255h1H234z M207,237h1v1L207,237z M200,227l2,1l-1,1l-1-1l1,1h-1v-1v1h1v1h-1v-1h-1v-1
			L200,227z M197,222h1v1l1,1l1,1l-1,1l-1-1l-1,1h1v-1l1,1l-1,1v-1v1h-1h1v1h-1h-1h1h1h-1l-1,1l2-1v1h-1h1v-1h1v1l-1,1h-1h1l1-1v1
			h-1h1v-1l1,1h-2h2h1v1v-1h-1h1v-1h1l-1,1l1-1h-1h1l1,1h-1v1l1-1h3l1,1v1v2l-2,2l-1,1h-1l-1,1l1-1v1h1l2-1v-1h1v1v1h1v-1h2v1l1-1v1
			l2-2l2,1l4,1h2h-1l-1,1h1l1-1h1v1v2v2l2,1h1v4l2,2h1h1v-1v1h2v2v1l1,3l-3,2h-1v1h-1l1,1l-2,3v2l1,1l1,1l1,1l-2,4v3l-2-1h-1l-1-1
			v-1h-1v1v-1l-1-2h1h-1v-1h-1v-1h-1h-1v-1h-1l-1-1l-1,1v1v1l-1,1v-1h-1v1h-1v1l-1,1h1l-1,1h-1v1l-1,1h-1l-2,1l-1,1h-1h-2l-1-1l-3,2
			h-1l-1,1l-1,2v3l-1,1v1h1v1l1,1v1l-1,1h-1h-1v-1h-1l-1,2l-2-1h-2l-1,2v-1h-1v-2v-1h-1l-1-1h-1v-1v-1l-1-1h-1l1-1h-1h-1h-1v1l-2-2
			l1-2v-1v-1h-2l-1-1l-2-1l-3,1v-1l-3-3l1-1h-1l-1-1h-1l-2-2l-1-1h-1l-1-1h1l2-1v-1l1-2l1-1l1,1l1-1h1v-1l1-2l-1-1h-1l-1,1v-1h-2v-1
			l-3,1l-1-1l-2-1v-1v-2l-1-1l-1-1l-2,1v-1h-1l-1-2l-2-1v-1l-1-1l1-1l1-1h1v-1h1h1h1l1,1h1h1h1h1l1-1l1-1l1-1v1l1-1v-1l2-2l-1-1l1-1
			l3,1v-1h1v1h1l2-1v-1h-1v-1l1-1h1l1,2l1,1l1,1h1v-2v-1v-1h1h1l-1-1v-2h1v-2l1-1l2-1l3-1l1-1l1,1h3l3-1h2h1v-1v-1H197z" style="fill: rgb(250, 171, 24);"></path>
		<path id="ID33" d="M74,200v1h-1L74,200z M74,198v-1V198z M73,195v-1V195z M72,194v1V194z M71,193v1V193z M72,193
			l1,1v1h1v1v1v1l-1,1l1,1h-1v-1v1v-1h-1v1h-1l-2-1h1l1-1v-3l1-1V193z M71,193h1H71z M71,192v1V192z M67,190v1V190z M73,190v1V190z
			 M70,190h-1H70z M70,190v1V190z M70,190h-1H70z M71,190v-1V190z M70,189l1,1h-1l-1-1H70z M68,189h1H68z M69,189v1V189z M74,189h1
			H74z M73,189h1H73z M69,189h-1v-1L69,189z M71,188h1v1l1,1v1v1l2,2v1h-1l1,1l-1-2l-2-2l-1-2l-1-1l-1-1H71z M69,188h-1H69z M77,188
			h-1H77z M68,188v-1V188z M83,187h-1H83z M83,187h-1H83z M76,186v1V186z M76,184h1h1v1h1v-1h1l1,2h-1l-1,1l-2-1h-3v-1l1-1H76z
			 M85,173h-1H85z M50,170v1h-1L50,170z M50,171v-1V171z M50,170h-1H50z M51,169v-1V169z M61,166v-1V166z M44,162v1V162z M80,161v1
			V161z M45,160h-1H45z M47,158v1V158z M48,157v1h-1v-1H48z M50,156l1,1v-1v1h1l1,1h1v1l1,1l2,3l2,1l1,2h1v1l1,1l-1,1v1v1v1v3l-1,1
			h-1l1,1l-1-1h-1h-1v-1l-1-1v-2l-1-2l-3-2h-1v-1l-1-1l-1-2h-1v-1v-1l-1-1v1l-1-2l-1-1h-1l1-1l1,1v-1l1,1l1-1l1-1h1l-1-1H50z
			 M76,155h-1H76z M75,154v1V154z M74,153v1V153z M73,152l1,1h-1l1,1l1-1v1v-1v1h1h-1h-1h-1l-1-1L73,152z M52,152v1l-1-1H52z
			 M79,151v1V151z M64,149v1V149z M75,149h-1H75z M74,148h-1H74z M70,147h1H70z M67,144h-1H67z M105,134h-1H105z M107,135v-2v1V135z
			 M118,130v-1V130z M77,106v1V106z M77,106l-1,1v-1H77z M75,105v1h-1v-1H75z M69,101v1l-1-1H69z M68,98v1V98v1h-1l1,1h-1h1v-1v1v1
			h-1h-1v-1v1h1l-1,2v-1v1h1v-1h1h1l1,1v1h-1v-1l-1,1l1-1v1h-1h1h1v-1h1l1,1v-1l-1,1h1v1l-1-1v1h1v-1h1h-1h1h-1h1v1h1l-1-1h1v1v1v-1
			v1v1v-1h1h-1h1v1v-1h1l-1,1l1-1v1v-1v1h1v-1l1,1v2h-1h-1v1v-1h1h1v1v-1h1v1l3,1h1l4,3h1l2,1v1v-1l1,1v1l3,1v1l2,1l2,1l2,1v1l2,2v1
			l-1-1v1v1v-1h1v-1h1v1l1,1l1-1v3v1l-1,2h1v1v1h-1v1v1h-1v-1v1h1v-1v-1h1h1v-1h-1v-1h-1l2-1h1v2v2l1,1v-1l-1-2l1-2l1,1l1,1l2,2
			l-1,2v2l1,3v3l-1,3v2l1,1h2v1l-1,1h1v1v2l-1,2h-1v-1h-1l1,1h-1h-1v1h-3h-1v1h1v2l1,1l1,2h-2v1h1h-1l1,1v1h-1v1h1v1l-1,1l2,1l-3-1
			l-2-1l-2-1h-1l1,2v1h-1v1l1,1h1v1l1,1v1l-1,1h-2h-1l-1,1l-1-1l-1-1h-1h-1l-3,1l-1,3h-2l-1,1l-1,1v-1v-1h-1l1-1v-1l-1-2v-1v-1h-1
			v-1v-1l-1-2l-1-1h1l-1-1l-1-5l-1-3l-2-3h1l-1-1l-1-2l1,1v-1h1l1-1l-1-1l-1-1h1l-1-1h-1h-1h1v1h-1l-1-2l-1-1v-1l-2-2h-2l-1-1v1
			l-1-1v1v-1l-3-2l1-3l-1-2l-1-1v-3v-1l1-1h-1v-1v-1v-1h-1l-1-1l-1-1v-1v-1v-1h1v-1l-1-1v-1l-2-1h3l1-1v-1h-1l-1-1v-1v-1h-1v-1l-1-1
			l-1-3l2-2h1l-1-1v-1l1,1v-1l2-1v-1v-2l1-1h-1l1-1v-1h1v-1h1H68z" style="fill: rgb(153, 0, 0);"></path>
		<path id="ID34" d="M323,349l1,1l1,1h2h1l1,1v-1l1,1l-1,4l1,2v1l1-1l-1,1h1v1l-1-1l-2,1v-1h-1l-1-1l-4-1h-1v-1l-3-1
			l-4-2l1-2l1-1v-1v-1h3v1l1-1l3-2V349z" style="fill: rgb(153, 0, 0);"></path>
</g>
</svg>
